<svg width="11" height="10" viewBox="0 0 11 10" fill="none" xmlns="http://www.w3.org/2000/svg">
<path d="M7.86 9.99494H7.85151C7.02819 9.93577 6.23112 9.67979 5.52731 9.24851C4.21808 8.49067 3.06412 7.49186 2.12638 6.30483C1.34044 5.42313 0.778006 4.3654 0.48648 3.2208C0.364285 2.72985 0.37586 2.21514 0.520003 1.73018C0.613246 1.42494 0.764221 1.14045 0.964729 0.89213C1.15832 0.631756 1.4174 0.427272 1.71562 0.299459C2.01761 0.157855 2.36123 0.132708 2.68061 0.228839C2.97919 0.434914 3.23295 0.699315 3.42659 1.0061L4.1681 1.9997C4.50287 2.52667 4.55115 2.73048 4.52567 2.92759C4.46198 3.18151 4.33636 3.41569 4.16005 3.60921C4.03133 3.78799 3.93657 3.89973 3.86327 3.98287C3.76762 4.09327 3.75511 4.11204 3.74796 4.15048C3.72963 4.25238 3.80338 4.37396 4.08809 4.72259C4.61069 5.34374 5.19571 5.90958 5.83392 6.41121C5.98544 6.53904 6.11149 6.63469 6.2268 6.62128C6.2715 6.61591 6.29563 6.59893 6.44537 6.47199C6.51509 6.41299 6.6027 6.3379 6.72069 6.24538L6.76539 6.20784C6.93985 6.03077 7.16184 5.90798 7.40455 5.85429C7.69278 5.85109 7.97455 5.93969 8.20908 6.10727L8.94522 6.59178L9.54951 7.05304C9.91423 7.37754 10.1341 7.57375 10.194 7.89199C10.2143 8.08563 10.1954 8.28136 10.1385 8.46756C10.0816 8.65376 9.98786 8.82662 9.86283 8.97587C9.64145 9.29804 9.34323 9.55994 8.99517 9.73787C8.64711 9.9158 8.26018 10.0042 7.86938 9.99494H7.86ZM2.31679 0.612332C2.1669 0.618711 2.01954 0.653125 1.88234 0.713792C1.65755 0.820872 1.46088 0.978975 1.308 1.1755C1.11466 1.41546 0.97724 1.69549 0.90573 1.99523C0.821315 2.36676 0.825756 2.75297 0.918692 3.12247C1.19635 4.19925 1.72804 5.1938 2.4692 6.0228C3.37217 7.16642 4.48314 8.12909 5.74364 8.86011C6.38426 9.25676 7.11123 9.49274 7.86268 9.54798C8.18202 9.55819 8.4988 9.48793 8.78387 9.34368C9.06895 9.19942 9.31318 8.98579 9.49409 8.72244C9.67589 8.51648 9.77117 8.24828 9.76003 7.97378C9.72919 7.81198 9.59242 7.6846 9.2572 7.38647L8.69224 6.9556L7.98559 6.49166C7.68926 6.33656 7.57439 6.28561 7.45907 6.29812C7.36343 6.3093 7.26867 6.38171 7.04474 6.5587L6.99736 6.59625C6.88473 6.68564 6.80115 6.75626 6.73455 6.81258C6.615 6.94432 6.45543 7.03306 6.28044 7.06511C6.14296 7.0672 6.00657 7.04043 5.88008 6.98654C5.75359 6.93265 5.63981 6.85283 5.54608 6.75224C4.887 6.23373 4.2831 5.64869 3.74393 5.00641C3.43732 4.63364 3.25228 4.38915 3.30904 4.07181C3.34178 3.92674 3.41711 3.79476 3.52537 3.69279C3.59152 3.61636 3.68047 3.514 3.79891 3.34952C3.9238 3.21074 4.02037 3.04888 4.08318 2.87306C4.08854 2.82837 4.1015 2.72914 3.80025 2.25491L3.06902 1.27071C2.91431 1.03975 2.73076 0.829471 2.52284 0.64496C2.45663 0.62194 2.38686 0.610892 2.31679 0.612332Z" fill="#353F4E"/>
</svg>
