<svg width="19" height="21" viewBox="0 0 19 21" fill="none" xmlns="http://www.w3.org/2000/svg">
<circle cx="9.93047" cy="8.99712" r="7.99224" fill="white"/>
<path d="M16.1279 2.69755C14.4844 1.05401 12.2993 0.148926 9.97504 0.148926C7.65078 0.148926 5.4656 1.05401 3.82207 2.69755C2.17854 4.34108 1.27348 6.52619 1.27348 8.85045C1.27348 10.3228 1.64618 11.7696 2.35362 13.0512L0.511658 18.3138L5.77426 16.4719C7.05588 17.1793 8.50269 17.552 9.975 17.552C12.2993 17.552 14.4844 16.6469 16.1279 15.0034C17.7714 13.3599 18.6766 11.1747 18.6766 8.85045C18.6766 6.52615 17.7714 4.34104 16.1279 2.69755ZM14.2767 12.0829L13.2721 13.0875C12.44 13.9197 10.0787 12.9078 7.99822 10.8273C5.9177 8.74674 4.90575 6.38555 5.73797 5.55334L6.7425 4.54881C6.95055 4.34076 7.28788 4.34076 7.49592 4.54881L8.75161 5.80449C8.95965 6.01253 8.95965 6.34986 8.75161 6.55791L7.99819 7.31133C8.72901 8.85417 9.97131 10.0964 11.5142 10.8273L12.2676 10.0738C12.4756 9.8658 12.813 9.8658 13.021 10.0738L14.2767 11.3295C14.4848 11.5376 14.4848 11.8749 14.2767 12.0829Z" fill="#28CD64"/>
</svg>
