        <svg width="380" height="369" viewBox="0 0 380 369" fill="none" xmlns="http://www.w3.org/2000/svg">
          <path
            fill-rule="evenodd"
            clip-rule="evenodd"
            d="M6.10352e-05 20C6.10352e-05 10.5719 6.10352e-05 5.85786 2.92899 2.92893C5.85791 0 10.572 0 20.0001 0H149.938C157.057 0 160.616 0 163.265 1.9561C165.913 3.9122 166.96 7.31423 169.053 14.1183L170.973 20.3554C173.066 27.1594 174.113 30.5614 176.761 32.5175C179.41 34.4736 182.969 34.4736 190.088 34.4736H359.215C368.643 34.4736 373.357 34.4736 376.286 37.4026C379.215 40.3315 379.215 45.0455 379.215 54.4736V349C379.215 358.428 379.215 363.142 376.286 366.071C373.357 369 368.643 369 359.215 369H20.0001C10.572 369 5.85791 369 2.92899 366.071C6.10352e-05 363.142 6.10352e-05 358.428 6.10352e-05 349V66.3945V34.4736V20Z"
            fill="#E9F1F7"
          />
        </svg>