        <svg width="670" height="393" viewBox="0 0 670 393" fill="none" xmlns="http://www.w3.org/2000/svg">
          <path
            fill-rule="evenodd"
            clip-rule="evenodd"
            d="M0 14.5876C0 7.71092 0 4.2726 2.13629 2.1363C4.27258 0 7.71094 0 14.5875 0H83.6271C88.5134 0 90.9565 0 92.8174 1.27143C92.965 1.37229 93.1089 1.47854 93.2487 1.58997C95.0112 2.99467 95.7297 5.32978 97.1666 10C98.6036 14.6702 99.3221 17.0053 101.085 18.41C101.224 18.5215 101.368 18.6277 101.516 18.7286C103.377 20 105.82 20 110.706 20H655.412C662.289 20 665.727 20 667.864 22.1363C670 24.2726 670 27.7109 670 34.5876V378.412C670 385.289 670 388.727 667.864 390.864C665.727 393 662.289 393 655.412 393H14.5876C7.71094 393 4.27258 393 2.13629 390.864C0 388.727 0 385.289 0 378.412V37.9276V20V14.5876Z"
            fill="#E9F1F7"
          />
        </svg>