              <svg width="28" height="28" viewBox="0 0 28 28" fill="none" xmlns="http://www.w3.org/2000/svg">
                <g clip-path="url(#clip0_2130_3089)">
                  <path
                    d="M14 28C21.732 28 28 21.732 28 14C28 6.26801 21.732 0 14 0C6.26801 0 0 6.26801 0 14C0 21.732 6.26801 28 14 28Z"
                    fill="#DD4F17"
                  />
                  <mask
                    id="mask0_2130_3089"
                    style="mask-type: luminance"
                    maskUnits="userSpaceOnUse"
                    x="6"
                    y="6"
                    width="16"
                    height="16"
                  >
                    <path d="M21.875 6.125H6.125V21.875H21.875V6.125Z" fill="white" />
                  </mask>
                  <g mask="url(#mask0_2130_3089)">
                    <path
                      d="M11.2109 17.478H12.5234V16.8218H11.2109C10.4277 16.8218 9.67654 16.5106 9.12275 15.9568C8.56894 15.403 8.25781 14.6519 8.25781 13.8687C8.25781 13.0854 8.56894 12.3343 9.12275 11.7805C9.67654 11.2267 10.4277 10.9155 11.2109 10.9155H12.5234V10.2593H11.2109C10.2537 10.2593 9.33564 10.6396 8.65872 11.3165C7.98184 11.9934 7.60156 12.9114 7.60156 13.8687C7.60156 14.8259 7.98184 15.744 8.65872 16.4209C9.33564 17.0978 10.2537 17.478 11.2109 17.478Z"
                      fill="white"
                      stroke="white"
                      stroke-width="0.525"
                    />
                    <path
                      d="M16.4609 10.2593H15.1484V10.9155H16.4609C17.2441 10.9155 17.9952 11.2267 18.5491 11.7805C19.1029 12.3343 19.4141 13.0854 19.4141 13.8687C19.4141 14.6519 19.1029 15.403 18.5491 15.9568C17.9952 16.5106 17.2441 16.8218 16.4609 16.8218H15.1484V17.478H16.4609C17.4182 17.478 18.3362 17.0978 19.0131 16.4209C19.69 15.744 20.0703 14.8259 20.0703 13.8687C20.0703 12.9114 19.69 11.9934 19.0131 11.3165C18.3362 10.6396 17.4182 10.2593 16.4609 10.2593Z"
                      fill="white"
                      stroke="white"
                      stroke-width="0.525"
                    />
                    <path
                      d="M16.4609 13.5405H11.2109V14.1968H16.4609V13.5405Z"
                      fill="white"
                      stroke="white"
                      stroke-width="0.525"
                    />
                  </g>
                </g>
                <defs>
                  <clipPath id="clip0_2130_3089">
                    <rect width="28" height="28" fill="white" />
                  </clipPath>
                </defs>
              </svg>