<svg width="332" height="417" viewBox="0 0 332 417" fill="none" xmlns="http://www.w3.org/2000/svg">
    <path
        fill-rule="evenodd"
        clip-rule="evenodd"
        d="M331.138 14.5876C331.138 7.71092 331.138 4.2726 329.001 2.1363C326.865 0 323.427 0 316.55 0H247.511C242.624 0 240.181 0 238.32 1.27143C238.173 1.37229 238.029 1.47855 237.889 1.58998C236.127 2.99468 235.408 5.32979 233.971 10C232.534 14.6702 231.816 17.0053 230.053 18.41C229.913 18.5215 229.769 18.6277 229.622 18.7286C227.761 20 225.318 20 220.432 20H14.5876C7.71092 20 4.2726 20 2.1363 22.1363C0 24.2726 0 27.7109 0 34.5876V402.412C0 409.289 0 412.727 2.1363 414.864C4.2726 417 7.71091 417 14.5875 417H316.412C323.289 417 326.727 417 328.864 414.864C331 412.727 331 409.289 331 402.412V37.9965C331 37.9585 331.031 37.9276 331.069 37.9276C331.107 37.9276 331.138 37.8968 331.138 37.8588V14.5876Z"
        fill="#E9F1F7"
    />
</svg>