        <svg width="297" height="289" viewBox="0 0 297 289" fill="none" xmlns="http://www.w3.org/2000/svg">
          <path
            fill-rule="evenodd"
            clip-rule="evenodd"
            d="M297 20C297 10.5719 297 5.85786 294.071 2.92893C291.142 0 286.428 0 277 0H182.125C175.641 0 172.399 0 169.902 1.63774C169.591 1.84149 169.292 2.0624 169.006 2.29943C166.706 4.20473 165.753 7.30315 163.846 13.5C161.939 19.6968 160.986 22.7953 158.686 24.7006C158.4 24.9376 158.101 25.1585 157.79 25.3623C155.293 27 152.051 27 145.568 27H20C10.5719 27 5.85786 27 2.92893 29.9289C0 32.8579 0 37.5719 0 47V269C0 278.428 0 283.142 2.92893 286.071C5.85786 289 10.5719 289 20 289H277C286.428 289 291.142 289 294.071 286.071C297 283.142 297 278.428 297 269V52V27V20Z"
            fill="#E9F1F7"
          />
        </svg>