<svg width="35" height="22" viewBox="0 0 35 22" fill="none" xmlns="http://www.w3.org/2000/svg">
<path fill-rule="evenodd" clip-rule="evenodd" d="M15.0398 0.295225C14.9795 0.261662 14.9494 0.24488 14.9167 0.233041C14.8877 0.222527 14.8572 0.214932 14.8256 0.210357C14.7901 0.205206 14.7529 0.205206 14.6784 0.205206H13.023C12.8402 0.205206 12.7488 0.205206 12.663 0.232382C12.5872 0.256418 12.5149 0.29566 12.4513 0.347327C12.3794 0.405747 12.3233 0.485779 12.2113 0.645842L6.89842 8.2352C6.80474 8.36902 6.7579 8.43593 6.73134 8.50633C6.70781 8.56868 6.69598 8.63277 6.69645 8.69528C6.69699 8.76586 6.71903 8.83323 6.76313 8.96797L7.17089 10.214C7.29808 10.6026 7.36167 10.797 7.30965 10.9549C7.26422 11.0928 7.16467 11.2161 7.03438 11.2959C6.88518 11.3874 6.66474 11.3874 6.22388 11.3874H5.19503C5.01222 11.3874 4.92082 11.3874 4.83507 11.4145C4.75924 11.4386 4.68695 11.4778 4.62333 11.5295C4.55139 11.5879 4.49537 11.6679 4.38332 11.828L1.74369 15.5987C1.46988 15.9898 1.33298 16.1854 1.32726 16.3446C1.32227 16.4837 1.37742 16.6084 1.47961 16.6893C1.59666 16.7819 1.82001 16.7819 2.26671 16.7819H5.36296C5.53949 16.7819 5.62776 16.7819 5.71105 16.7563C5.78472 16.7336 5.85524 16.6966 5.91789 16.6477C5.98871 16.5924 6.04511 16.5164 6.1579 16.3645L7.8939 14.0264C8.00669 13.8745 8.06309 13.7985 8.13391 13.7432C8.19656 13.6943 8.26708 13.6573 8.34075 13.6346C8.42404 13.609 8.5123 13.609 8.68884 13.609H12.9694C13.2459 13.609 13.3841 13.609 13.4824 13.6611C13.5689 13.7069 13.634 13.7802 13.6688 13.8711C13.7084 13.9744 13.6908 14.1103 13.6557 14.3822L13.4455 16.0087C13.4103 16.2806 13.3928 16.4165 13.4323 16.5198C13.4672 16.6107 13.5323 16.684 13.6188 16.7298C13.7171 16.7819 13.8553 16.7819 14.1317 16.7819H30.5503C30.8389 16.7819 30.9833 16.7819 31.1033 16.7266C31.209 16.6779 31.3016 16.6003 31.368 16.5048C31.4435 16.3963 31.4687 16.2542 31.5193 15.97L31.8761 13.9629C31.9266 13.6787 31.9519 13.5366 31.915 13.4281C31.8825 13.3326 31.8175 13.255 31.7292 13.2063C31.6287 13.151 31.4844 13.151 31.1958 13.151H25.7333C25.2028 13.151 24.9375 13.151 24.8167 13.0431C24.7116 12.9493 24.6644 12.8065 24.6882 12.6543C24.7156 12.4793 24.9118 12.2703 25.3042 11.8523L33.7117 2.89623C33.7871 2.81594 33.8248 2.77579 33.8543 2.73158C33.8806 2.69235 33.902 2.65085 33.9181 2.60809C33.9362 2.55991 33.9451 2.50974 33.963 2.40941L34.2143 0.995507C34.2648 0.711311 34.2901 0.569213 34.2532 0.460664C34.2208 0.365182 34.1557 0.287553 34.0674 0.238902C33.967 0.183594 33.8227 0.183594 33.534 0.183594H21.4199C21.1312 0.183594 20.9869 0.183594 20.8668 0.238902C20.7612 0.287553 20.6685 0.365182 20.6022 0.460664C20.5267 0.569213 20.5014 0.711311 20.4509 0.995508L20.0941 3.00256C20.0436 3.28675 20.0183 3.42885 20.0552 3.5374C20.0876 3.63288 20.1527 3.71051 20.241 3.75916C20.3414 3.81447 20.4857 3.81447 20.7744 3.81447H26.2368C26.7674 3.81447 27.0327 3.81447 27.1535 3.92233C27.2586 4.01619 27.3057 4.15895 27.2819 4.31119C27.2546 4.48614 27.0584 4.69516 26.6659 5.11321L19.8288 12.3964C19.3683 12.8869 19.1381 13.1322 18.9455 13.1733C18.7784 13.209 18.6175 13.1668 18.5126 13.0599C18.3917 12.9366 18.4007 12.6333 18.4186 12.0268L18.6925 2.7499C18.697 2.59849 18.6992 2.52279 18.6802 2.45658C18.6633 2.39795 18.6343 2.34498 18.5947 2.30052C18.55 2.25031 18.4872 2.2153 18.3614 2.14527L15.0398 0.295225ZM14.8166 4.77027C14.8621 4.77027 14.8934 4.80548 14.8876 4.85027L14.3007 9.39119C14.2624 9.68755 14.2433 9.83573 14.1689 9.94956C14.1035 10.0496 14.0095 10.1316 13.9011 10.1832C13.7778 10.2419 13.6271 10.2419 13.3258 10.2419H12.1059C11.6446 10.2419 11.414 10.2419 11.2961 10.1464C11.1933 10.0631 11.1395 9.93488 11.1479 9.79317C11.1576 9.63075 11.3049 9.43231 11.5996 9.03542L14.7343 4.81346C14.7541 4.7868 14.7856 4.77027 14.8166 4.77027Z" fill="#E9E9E9"/>
<path d="M0.882812 16.9562L19.2984 20.8941C19.5604 20.9501 19.7443 20.5679 19.5034 20.468C19.266 20.3694 19.4412 19.9929 19.7023 20.0406L27.274 21.4244C27.3003 21.4292 27.3134 21.4316 27.3268 21.4332C27.3387 21.4347 27.3507 21.4358 27.3627 21.4364C27.3764 21.4372 27.3901 21.4372 27.4177 21.4372H29.7731C30.1325 21.4372 30.3122 21.4372 30.3779 21.4213C30.8163 21.3156 31.0198 20.7783 30.7182 20.5232C30.673 20.4849 30.5188 20.4175 30.2105 20.2826L27.4428 19.0722C27.3014 19.0103 27.146 19.2098 27.2563 19.3116C27.3539 19.4018 27.2411 19.5819 27.1008 19.56L14.5562 17.6055C14.2038 17.5506 13.9242 18.0068 14.1753 18.2271C14.4253 18.4464 14.1492 18.9007 13.7973 18.8491L0.882812 16.9562Z" fill="#E9E9E9"/>
</svg>
