<svg width="7" height="21" viewBox="0 0 7 21" fill="none" xmlns="http://www.w3.org/2000/svg">
<path d="M3.89295 19.5504L4.04362 19.7271L4.23091 19.5899L5.94405 18.3347L6.15828 18.1777L5.98867 17.9734C5.31001 17.1557 4.78233 16.345 4.40263 15.5417C4.02096 14.7285 3.75077 13.909 3.59096 13.0828C3.43564 12.2449 3.35503 11.3841 3.34938 10.5003C3.35503 9.61632 3.43566 8.75838 3.59095 7.92621C3.75077 7.09432 4.02097 6.27491 4.40248 5.46767L4.40276 5.46708C4.78246 4.65815 5.31011 3.84474 5.98867 3.02713L6.15828 2.82277L5.94405 2.66581L4.23091 1.41064L4.04362 1.27342L3.89295 1.45007C3.22209 2.23659 2.648 3.12857 2.17006 4.12475L2.1698 4.12531C1.69802 5.11489 1.33864 6.15586 1.09152 7.24779L1.09152 7.24779L1.09125 7.24901C0.850054 8.34013 0.740443 9.42401 0.763026 10.5003C0.740443 11.5765 0.850054 12.6604 1.09124 13.7515L1.09158 13.753C1.3387 14.8392 1.69802 15.8799 2.16955 16.8747L2.17006 16.8758C2.648 17.8719 3.22209 18.7639 3.89295 19.5504Z" stroke="#ACACAC" stroke-width="0.5"/>
</svg>
