<svg width="7" height="21" viewBox="0 0 7 21" fill="none" xmlns="http://www.w3.org/2000/svg">
<path d="M2.69964 19.5504L2.54897 19.7271L2.36168 19.5899L0.648542 18.3347L0.434312 18.1777L0.60392 17.9734C1.28258 17.1557 1.81026 16.345 2.18996 15.5417C2.57163 14.7285 2.84182 13.909 3.00163 13.0828C3.15695 12.2449 3.23756 11.3841 3.24321 10.5003C3.23756 9.61632 3.15694 8.75838 3.00164 7.92621C2.84182 7.09432 2.57162 6.27491 2.19011 5.46767L2.18983 5.46708C1.81013 4.65815 1.28248 3.84474 0.60392 3.02713L0.434312 2.82277L0.648542 2.66581L2.36168 1.41064L2.54897 1.27342L2.69964 1.45007C3.3705 2.23659 3.94459 3.12857 4.42253 4.12475L4.42279 4.12531C4.89457 5.11489 5.25395 6.15586 5.50107 7.24779L5.50107 7.24779L5.50134 7.24901C5.74254 8.34013 5.85215 9.42401 5.82956 10.5003C5.85215 11.5765 5.74254 12.6604 5.50135 13.7515L5.50101 13.753C5.25389 14.8392 4.89457 15.8799 4.42304 16.8747L4.42253 16.8758C3.94459 17.8719 3.3705 18.7639 2.69964 19.5504Z" stroke="#ACACAC" stroke-width="0.5"/>
</svg>
