<svg width="208" height="137" viewBox="0 0 208 137" fill="none" xmlns="http://www.w3.org/2000/svg">
<path fill-rule="evenodd" clip-rule="evenodd" d="M36.1657 0.277103C36.0119 0.19144 35.935 0.148608 35.8516 0.118391C35.7775 0.0915571 35.6997 0.0721712 35.6191 0.0604956C35.5285 0.047348 35.4334 0.047348 35.2433 0.047348H31.0183C30.5517 0.047348 30.3184 0.047348 30.0996 0.11671C29.906 0.178054 29.7215 0.278212 29.5591 0.410081C29.3756 0.559185 29.2326 0.763447 28.9466 1.17197L15.3867 20.5421C15.1476 20.8837 15.0281 21.0544 14.9603 21.2341C14.9002 21.3932 14.87 21.5568 14.8712 21.7164C14.8726 21.8965 14.9289 22.0685 15.0414 22.4123L16.0821 25.5925C16.4067 26.5844 16.569 27.0804 16.4363 27.4835C16.3203 27.8354 16.0662 28.1502 15.7337 28.354C15.3529 28.5873 14.7903 28.5873 13.6651 28.5873H11.0392C10.5726 28.5873 10.3393 28.5873 10.1205 28.6567C9.92691 28.718 9.74241 28.8182 9.58004 28.9501C9.39644 29.0992 9.25345 29.3034 8.96746 29.7119L2.2304 39.3358C1.53157 40.334 1.18215 40.8332 1.16756 41.2396C1.15481 41.5945 1.29558 41.9129 1.55639 42.1193C1.85514 42.3556 2.42519 42.3556 3.5653 42.3556H11.4678C11.9183 42.3556 12.1436 42.3556 12.3562 42.2903C12.5442 42.2325 12.7242 42.138 12.8841 42.0131C13.0649 41.8719 13.2088 41.6781 13.4967 41.2903L17.9274 35.3228C18.2153 34.9351 18.3593 34.7412 18.54 34.6001C18.6999 34.4752 18.8799 34.3807 19.0679 34.3229C19.2805 34.2575 19.5058 34.2575 19.9563 34.2575H30.8816C31.5871 34.2575 31.9399 34.2575 32.1908 34.3904C32.4116 34.5073 32.5777 34.6945 32.6666 34.9265C32.7676 35.1901 32.7228 35.537 32.6331 36.2309L32.0966 40.3823C32.0069 41.0762 31.9621 41.4231 32.0631 41.6867C32.152 41.9187 32.3181 42.1058 32.5389 42.2228C32.7898 42.3556 33.1425 42.3556 33.8481 42.3556H75.7528C76.4895 42.3556 76.8579 42.3556 77.1643 42.2144C77.4339 42.0903 77.6704 41.8921 77.8398 41.6484C78.0325 41.3714 78.0969 41.0087 78.2259 40.2834L79.1366 35.1608C79.2655 34.4355 79.33 34.0728 79.2359 33.7958C79.1531 33.5521 78.9871 33.3539 78.7616 33.2298C78.5053 33.0886 78.137 33.0886 77.4002 33.0886H63.4585C62.1044 33.0886 61.4274 33.0886 61.1191 32.8133C60.8508 32.5738 60.7305 32.2094 60.7912 31.8208C60.861 31.3743 61.3618 30.8408 62.3634 29.7739L83.8217 6.91559C84.0141 6.71065 84.1102 6.60818 84.1857 6.49536C84.2526 6.39524 84.3073 6.28931 84.3483 6.18018C84.3946 6.0572 84.4174 5.92916 84.4629 5.67308L85.1044 2.06442C85.2334 1.33907 85.2978 0.976394 85.2037 0.699348C85.1209 0.455651 84.9549 0.257519 84.7295 0.13335C84.4732 -0.0078125 84.1048 -0.0078125 83.3681 -0.0078125H52.4495C51.7128 -0.0078125 51.3444 -0.0078125 51.0379 0.13335C50.7683 0.257519 50.5319 0.455651 50.3624 0.699348C50.1698 0.976394 50.1053 1.33907 49.9764 2.06442L49.0657 7.18696C48.9367 7.91231 48.8723 8.27498 48.9664 8.55203C49.0492 8.79572 49.2152 8.99386 49.4406 9.11802C49.6969 9.25919 50.0653 9.25919 50.802 9.25919H64.7437C66.0978 9.25919 66.7749 9.25919 67.0832 9.53447C67.3514 9.77404 67.4718 10.1384 67.411 10.527C67.3413 10.9735 66.8404 11.507 65.8388 12.5739L48.3887 31.1626C47.2134 32.4146 46.6257 33.0406 46.1342 33.1455C45.7077 33.2366 45.297 33.1289 45.0293 32.856C44.7207 32.5414 44.7436 31.7674 44.7893 30.2194L45.4886 6.54211C45.5 6.15567 45.5057 5.96246 45.457 5.79347C45.4139 5.64383 45.3398 5.50865 45.2389 5.39517C45.1249 5.26702 44.9644 5.17765 44.6435 4.99892L36.1657 0.277103ZM35.596 11.6986C35.7122 11.6986 35.792 11.7885 35.7772 11.9028L34.2794 23.4925C34.1816 24.2489 34.1328 24.6271 33.943 24.9176C33.7762 25.173 33.5362 25.3824 33.2595 25.514C32.9448 25.6637 32.5602 25.6637 31.7911 25.6637H28.6775C27.5003 25.6637 26.9117 25.6637 26.6109 25.42C26.3484 25.2074 26.2111 24.8802 26.2326 24.5185C26.2572 24.1039 26.6333 23.5975 27.3854 22.5845L35.3861 11.8089C35.4366 11.7408 35.5169 11.6986 35.596 11.6986Z" fill="#F1632B"/>
<path d="M0.0332031 42.8005L47.0348 52.8511C47.7035 52.9941 48.1728 52.0187 47.5581 51.7635C46.9521 51.5119 47.3994 50.551 48.0658 50.6727L67.3909 54.2045C67.458 54.2167 67.4915 54.2229 67.5256 54.2272C67.5559 54.231 67.5865 54.2337 67.6173 54.2353C67.6521 54.2372 67.6872 54.2372 67.7575 54.2372H73.7691C74.6864 54.2372 75.1451 54.2372 75.3128 54.1967C76.4317 53.9269 76.9512 52.5557 76.1813 51.9044C76.066 51.8068 75.6725 51.6347 74.8856 51.2905L67.8217 48.201C67.4608 48.0432 67.0641 48.5523 67.3455 48.8122C67.5947 49.0422 67.307 49.502 66.9488 49.4462L34.9316 44.4577C34.032 44.3176 33.3184 45.4819 33.9593 46.0441C34.5974 46.6038 33.8928 47.7633 32.9947 47.6317L0.0332031 42.8005Z" fill="#F1632B"/>
<path d="M99.6468 59.7195H96.4423C96.4196 59.4543 96.359 59.2138 96.2605 58.9979C96.1658 58.782 96.0332 58.5964 95.8627 58.4411C95.6961 58.282 95.4934 58.1607 95.2548 58.0774C95.0162 57.9903 94.7453 57.9467 94.4423 57.9467C93.912 57.9467 93.4631 58.0755 93.0957 58.3331C92.7321 58.5907 92.4556 58.96 92.2662 59.4411C92.0806 59.9221 91.9877 60.4998 91.9877 61.174C91.9877 61.8861 92.0824 62.4827 92.2718 62.9638C92.465 63.4411 92.7434 63.8009 93.1071 64.0433C93.4707 64.282 93.9082 64.4013 94.4196 64.4013C94.7112 64.4013 94.9726 64.3653 95.2037 64.2933C95.4347 64.2176 95.6355 64.1096 95.8059 63.9695C95.9764 63.8293 96.1146 63.6607 96.2207 63.4638C96.3306 63.263 96.4044 63.0376 96.4423 62.7876L99.6468 62.8104C99.609 63.3028 99.4707 63.8047 99.2321 64.3161C98.9934 64.8236 98.6544 65.2933 98.215 65.7251C97.7794 66.1532 97.2396 66.4979 96.5957 66.7592C95.9518 67.0206 95.2037 67.1513 94.3514 67.1513C93.2832 67.1513 92.3249 66.9221 91.4764 66.4638C90.6317 66.0054 89.9631 65.3312 89.4707 64.4411C88.9821 63.5509 88.7377 62.4619 88.7377 61.174C88.7377 59.8786 88.9877 58.7876 89.4877 57.9013C89.9877 57.0111 90.662 56.3388 91.5105 55.8842C92.359 55.4259 93.3059 55.1967 94.3514 55.1967C95.0862 55.1967 95.7624 55.2971 96.3798 55.4979C96.9972 55.6986 97.5389 55.9922 98.0048 56.3786C98.4707 56.7611 98.8457 57.2327 99.1298 57.7933C99.4139 58.3539 99.5862 58.996 99.6468 59.7195ZM101.08 66.9922V55.3558H106.103C106.966 55.3558 107.722 55.513 108.37 55.8274C109.018 56.1418 109.521 56.5945 109.881 57.1854C110.241 57.7763 110.421 58.4846 110.421 59.3104C110.421 60.1437 110.235 60.8464 109.864 61.4183C109.497 61.9903 108.98 62.4221 108.313 62.7138C107.65 63.0054 106.876 63.1513 105.989 63.1513H102.989V60.6967H105.353C105.724 60.6967 106.04 60.6513 106.302 60.5604C106.567 60.4657 106.769 60.3161 106.91 60.1115C107.054 59.907 107.126 59.6399 107.126 59.3104C107.126 58.977 107.054 58.7062 106.91 58.4979C106.769 58.2857 106.567 58.1304 106.302 58.032C106.04 57.9297 105.724 57.8786 105.353 57.8786H104.239V66.9922H101.08ZM107.898 61.6513L110.807 66.9922H107.376L104.535 61.6513H107.898ZM111.768 66.9922V55.3558H120.154V57.9013H114.927V59.9013H119.722V62.4467H114.927V64.4467H120.131V66.9922H111.768ZM124.743 66.9922H121.334L125.175 55.3558H129.493L133.334 66.9922H129.925L127.38 58.5604H127.289L124.743 66.9922ZM124.107 62.4013H130.516V64.7649H124.107V62.4013ZM132.668 57.9013V55.3558H142.782V57.9013H139.282V66.9922H136.168V57.9013H132.668ZM147.13 55.3558V66.9922H143.971V55.3558H147.13ZM151.809 55.3558L154.195 63.5604H154.286L156.672 55.3558H160.241L156.4 66.9922H152.081L148.241 55.3558H151.809ZM164.52 55.3558V66.9922H161.361V55.3558H164.52ZM165.699 57.9013V55.3558H175.813V57.9013H172.313V66.9922H169.199V57.9013H165.699ZM176.525 55.3558H180.047L182.32 60.0831H182.411L184.684 55.3558H188.206L183.934 63.3331V66.9922H180.797V63.3331L176.525 55.3558ZM95.0559 77.9922C95.0256 77.6134 94.8836 77.3179 94.6298 77.1058C94.3798 76.8937 93.9991 76.7876 93.4877 76.7876C93.162 76.7876 92.8949 76.8274 92.6866 76.907C92.4821 76.9827 92.3306 77.0869 92.2321 77.2195C92.1336 77.352 92.0824 77.5036 92.0787 77.674C92.0711 77.8142 92.0957 77.9411 92.1525 78.0547C92.2131 78.1645 92.3078 78.2649 92.4366 78.3558C92.5654 78.4429 92.7302 78.5225 92.9309 78.5945C93.1317 78.6664 93.3703 78.7308 93.6468 78.7876L94.6014 78.9922C95.2453 79.1286 95.7965 79.3085 96.2548 79.532C96.7131 79.7554 97.0881 80.0187 97.3798 80.3217C97.6715 80.621 97.8855 80.9581 98.0218 81.3331C98.162 81.7081 98.234 82.1172 98.2377 82.5604C98.234 83.3255 98.0427 83.9732 97.6639 84.5036C97.2851 85.0339 96.7434 85.4373 96.0389 85.7138C95.3381 85.9903 94.4953 86.1286 93.5105 86.1286C92.4991 86.1286 91.6165 85.9789 90.8627 85.6797C90.1127 85.3804 89.5294 84.9202 89.1127 84.299C88.6999 83.674 88.4915 82.8748 88.4877 81.9013H91.4877C91.5067 82.2573 91.5957 82.5566 91.7548 82.799C91.9139 83.0414 92.1374 83.2251 92.4252 83.3501C92.7169 83.4751 93.0635 83.5376 93.465 83.5376C93.8021 83.5376 94.0843 83.496 94.3116 83.4126C94.5389 83.3293 94.7112 83.2138 94.8287 83.0661C94.9461 82.9183 95.0067 82.7498 95.0105 82.5604C95.0067 82.3823 94.948 82.227 94.8343 82.0945C94.7245 81.9581 94.5427 81.8369 94.2889 81.7308C94.0351 81.621 93.6923 81.5187 93.2605 81.424L92.1014 81.174C91.0711 80.9505 90.2586 80.5774 89.6639 80.0547C89.073 79.5282 88.7794 78.8104 88.7832 77.9013C88.7794 77.1626 88.9764 76.5168 89.3741 75.9638C89.7756 75.407 90.3306 74.9732 91.0389 74.6626C91.751 74.352 92.5673 74.1967 93.4877 74.1967C94.4271 74.1967 95.2396 74.3539 95.9252 74.6683C96.6109 74.9827 97.1393 75.4259 97.5105 75.9979C97.8855 76.5661 98.0749 77.2308 98.0787 77.9922H95.0559ZM99.1213 76.9013V74.3558H109.235V76.9013H105.735V85.9922H102.621V76.9013H99.1213ZM117.31 74.3558H120.469V81.8104C120.469 82.6967 120.257 83.4638 119.833 84.1115C119.412 84.7554 118.825 85.2536 118.072 85.6058C117.318 85.9543 116.443 86.1286 115.447 86.1286C114.443 86.1286 113.564 85.9543 112.81 85.6058C112.056 85.2536 111.469 84.7554 111.049 84.1115C110.632 83.4638 110.424 82.6967 110.424 81.8104V74.3558H113.583V81.5376C113.583 81.8975 113.662 82.2195 113.822 82.5036C113.981 82.7839 114.2 83.0036 114.481 83.1626C114.765 83.3217 115.087 83.4013 115.447 83.4013C115.81 83.4013 116.132 83.3217 116.412 83.1626C116.693 83.0036 116.912 82.7839 117.072 82.5036C117.231 82.2195 117.31 81.8975 117.31 81.5376V74.3558ZM126.448 85.9922H121.971V74.3558H126.403C127.599 74.3558 128.634 74.5888 129.505 75.0547C130.38 75.5168 131.054 76.1835 131.528 77.0547C132.005 77.9221 132.243 78.9619 132.243 80.174C132.243 81.3861 132.007 82.4278 131.533 83.299C131.06 84.1664 130.389 84.8331 129.522 85.299C128.654 85.7611 127.63 85.9922 126.448 85.9922ZM125.13 83.3104H126.334C126.91 83.3104 127.401 83.2176 127.806 83.032C128.215 82.8464 128.526 82.5263 128.738 82.0717C128.954 81.6172 129.062 80.9846 129.062 80.174C129.062 79.3634 128.952 78.7308 128.732 78.2763C128.516 77.8217 128.198 77.5017 127.778 77.3161C127.361 77.1304 126.849 77.0376 126.243 77.0376H125.13V83.3104ZM136.864 74.3558V85.9922H133.705V74.3558H136.864ZM149.634 80.174C149.634 81.4695 149.382 82.5623 148.878 83.4524C148.375 84.3388 147.695 85.0111 146.839 85.4695C145.983 85.924 145.028 86.1513 143.975 86.1513C142.914 86.1513 141.956 85.9221 141.1 85.4638C140.248 85.0017 139.57 84.3274 139.066 83.4411C138.566 82.5509 138.316 81.4619 138.316 80.174C138.316 78.8786 138.566 77.7876 139.066 76.9013C139.57 76.0111 140.248 75.3388 141.1 74.8842C141.956 74.4259 142.914 74.1967 143.975 74.1967C145.028 74.1967 145.983 74.4259 146.839 74.8842C147.695 75.3388 148.375 76.0111 148.878 76.9013C149.382 77.7876 149.634 78.8786 149.634 80.174ZM146.384 80.174C146.384 79.477 146.291 78.8899 146.106 78.4126C145.924 77.9316 145.653 77.5679 145.293 77.3217C144.937 77.0717 144.498 76.9467 143.975 76.9467C143.452 76.9467 143.011 77.0717 142.651 77.3217C142.295 77.5679 142.024 77.9316 141.839 78.4126C141.657 78.8899 141.566 79.477 141.566 80.174C141.566 80.871 141.657 81.46 141.839 81.9411C142.024 82.4183 142.295 82.782 142.651 83.032C143.011 83.2782 143.452 83.4013 143.975 83.4013C144.498 83.4013 144.937 83.2782 145.293 83.032C145.653 82.782 145.924 82.4183 146.106 81.9411C146.291 81.46 146.384 80.871 146.384 80.174Z" fill="#2A2A3C"/>
<path d="M91.6127 104.129C90.9991 104.129 90.4707 103.984 90.0275 103.694C89.5843 103.404 89.2434 103.005 89.0048 102.496C88.7662 101.988 88.6468 101.407 88.6468 100.754C88.6468 100.089 88.769 99.5021 89.0133 98.9936C89.2605 98.4822 89.6042 98.0831 90.0446 97.7962C90.4877 97.5064 91.0048 97.3615 91.5957 97.3615C92.0559 97.3615 92.4707 97.4467 92.84 97.6172C93.2093 97.7876 93.5119 98.0263 93.7477 98.3331C93.9835 98.6399 94.1298 98.9979 94.1866 99.407H93.1809C93.1042 99.1087 92.9338 98.8445 92.6696 98.6143C92.4082 98.3814 92.0559 98.2649 91.6127 98.2649C91.2207 98.2649 90.877 98.3672 90.5815 98.5717C90.2889 98.7734 90.0602 99.0589 89.8954 99.4283C89.7335 99.7947 89.6525 100.225 89.6525 100.719C89.6525 101.225 89.7321 101.665 89.8912 102.04C90.0531 102.415 90.2804 102.707 90.573 102.914C90.8684 103.121 91.215 103.225 91.6127 103.225C91.8741 103.225 92.1113 103.18 92.3244 103.089C92.5375 102.998 92.7179 102.867 92.8656 102.697C93.0133 102.526 93.1184 102.322 93.1809 102.083H94.1866C94.1298 102.469 93.9892 102.817 93.7647 103.127C93.5431 103.434 93.2491 103.678 92.8826 103.86C92.519 104.039 92.0957 104.129 91.6127 104.129ZM97.5829 104.146C97.1681 104.146 96.7917 104.067 96.4537 103.911C96.1156 103.752 95.8471 103.523 95.6483 103.225C95.4494 102.924 95.35 102.56 95.35 102.134C95.35 101.759 95.4238 101.455 95.5716 101.222C95.7193 100.987 95.9167 100.802 96.1639 100.668C96.411 100.535 96.6838 100.435 96.9821 100.37C97.2832 100.302 97.5858 100.248 97.8897 100.208C98.2875 100.157 98.6099 100.119 98.8571 100.093C99.1071 100.065 99.2889 100.018 99.4025 99.9524C99.519 99.8871 99.5772 99.7734 99.5772 99.6115V99.5774C99.5772 99.157 99.4622 98.8303 99.2321 98.5973C99.0048 98.3643 98.6596 98.2479 98.1966 98.2479C97.7164 98.2479 97.34 98.353 97.0673 98.5632C96.7946 98.7734 96.6028 98.9979 96.492 99.2365L95.5375 98.8956C95.7079 98.4979 95.9352 98.1882 96.2193 97.9666C96.5062 97.7422 96.8187 97.5859 97.1568 97.4979C97.4977 97.407 97.8329 97.3615 98.1625 97.3615C98.3727 97.3615 98.6142 97.3871 98.8869 97.4382C99.1625 97.4865 99.4281 97.5874 99.6838 97.7408C99.9423 97.8942 100.157 98.1257 100.327 98.4354C100.498 98.745 100.583 99.1598 100.583 99.6797V103.992H99.5772V103.106H99.5261C99.4579 103.248 99.3443 103.4 99.1852 103.562C99.0261 103.724 98.8145 103.862 98.5502 103.975C98.286 104.089 97.9636 104.146 97.5829 104.146ZM97.7363 103.242C98.1341 103.242 98.4693 103.164 98.742 103.008C99.0176 102.852 99.225 102.65 99.3642 102.403C99.5062 102.156 99.5772 101.896 99.5772 101.623V100.702C99.5346 100.754 99.4409 100.8 99.296 100.843C99.1539 100.883 98.9892 100.918 98.8017 100.95C98.617 100.978 98.4366 101.004 98.2605 101.026C98.0872 101.046 97.9466 101.063 97.8386 101.077C97.5772 101.112 97.3329 101.167 97.1056 101.244C96.8812 101.317 96.6994 101.43 96.5602 101.58C96.4238 101.728 96.3556 101.93 96.3556 102.185C96.3556 102.535 96.4849 102.799 96.7434 102.978C97.0048 103.154 97.3358 103.242 97.7363 103.242ZM103.424 102.509L106.578 97.4467H107.737V103.992H106.731V98.9297L103.595 103.992H102.419V97.4467H103.424V102.509ZM105.913 95.2649H106.85C106.85 95.7251 106.691 96.1016 106.373 96.3942C106.055 96.6868 105.623 96.8331 105.078 96.8331C104.541 96.8331 104.113 96.6868 103.795 96.3942C103.48 96.1016 103.322 95.7251 103.322 95.2649H104.259C104.259 95.4865 104.32 95.6811 104.443 95.8487C104.568 96.0163 104.779 96.1001 105.078 96.1001C105.376 96.1001 105.589 96.0163 105.717 95.8487C105.847 95.6811 105.913 95.4865 105.913 95.2649ZM108.688 98.3842V97.4467H114.006V98.3842H111.858V103.992H110.853V98.3842H108.688ZM116.343 99.8161H118.218C118.985 99.8161 119.571 100.011 119.977 100.4C120.384 100.789 120.587 101.282 120.587 101.879C120.587 102.271 120.496 102.627 120.314 102.948C120.132 103.266 119.865 103.521 119.513 103.711C119.161 103.898 118.729 103.992 118.218 103.992H115.473V97.4467H116.479V103.055H118.218C118.615 103.055 118.942 102.95 119.198 102.739C119.453 102.529 119.581 102.259 119.581 101.93C119.581 101.583 119.453 101.3 119.198 101.082C118.942 100.863 118.615 100.754 118.218 100.754H116.343V99.8161ZM121.627 103.992V97.4467H122.632V103.992H121.627ZM125.973 102.799L125.905 103.259C125.857 103.583 125.783 103.93 125.683 104.299C125.587 104.668 125.486 105.016 125.381 105.343C125.276 105.67 125.189 105.93 125.121 106.123H124.354C124.391 105.941 124.439 105.701 124.499 105.403C124.558 105.104 124.618 104.771 124.678 104.401C124.74 104.035 124.791 103.66 124.831 103.276L124.882 102.799H125.973ZM88.9537 118.992V112.447H94.1014V118.992H93.0957V113.384H89.9593V118.992H88.9537ZM95.938 121.447V112.447H96.9096V113.487H97.0289C97.1028 113.373 97.2051 113.228 97.3358 113.052C97.4693 112.873 97.6596 112.714 97.9068 112.575C98.1568 112.433 98.4949 112.362 98.921 112.362C99.4721 112.362 99.9579 112.499 100.378 112.775C100.799 113.05 101.127 113.441 101.363 113.947C101.599 114.452 101.716 115.049 101.716 115.737C101.716 116.43 101.599 117.031 101.363 117.539C101.127 118.045 100.8 118.437 100.383 118.715C99.965 118.991 99.4835 119.129 98.938 119.129C98.5176 119.129 98.1809 119.059 97.9281 118.92C97.6752 118.778 97.4806 118.617 97.3443 118.438C97.2079 118.256 97.1028 118.106 97.0289 117.987H96.9437V121.447H95.938ZM96.9267 115.719C96.9267 116.214 96.9991 116.65 97.144 117.028C97.2889 117.403 97.5005 117.697 97.7789 117.91C98.0574 118.12 98.3983 118.225 98.8017 118.225C99.2221 118.225 99.573 118.114 99.8542 117.893C100.138 117.668 100.351 117.367 100.493 116.989C100.638 116.609 100.711 116.185 100.711 115.719C100.711 115.259 100.64 114.844 100.498 114.475C100.358 114.103 100.147 113.809 99.8627 113.593C99.5815 113.374 99.2278 113.265 98.8017 113.265C98.3926 113.265 98.0488 113.369 97.7704 113.576C97.492 113.781 97.2818 114.067 97.1397 114.437C96.9977 114.803 96.9267 115.231 96.9267 115.719ZM105.995 119.129C105.364 119.129 104.82 118.989 104.363 118.711C103.908 118.43 103.557 118.038 103.31 117.535C103.066 117.029 102.944 116.441 102.944 115.771C102.944 115.1 103.066 114.509 103.31 113.998C103.557 113.484 103.901 113.083 104.341 112.796C104.785 112.506 105.302 112.362 105.893 112.362C106.233 112.362 106.57 112.418 106.903 112.532C107.235 112.646 107.537 112.83 107.81 113.086C108.083 113.339 108.3 113.674 108.462 114.092C108.624 114.509 108.705 115.023 108.705 115.634V116.06H103.66V115.191H107.682C107.682 114.822 107.608 114.492 107.461 114.202C107.316 113.913 107.108 113.684 106.839 113.516C106.572 113.349 106.256 113.265 105.893 113.265C105.492 113.265 105.145 113.364 104.853 113.563C104.563 113.759 104.34 114.015 104.184 114.33C104.028 114.646 103.949 114.984 103.949 115.344V115.924C103.949 116.418 104.035 116.837 104.205 117.181C104.378 117.522 104.618 117.782 104.925 117.961C105.232 118.137 105.589 118.225 105.995 118.225C106.259 118.225 106.498 118.188 106.711 118.114C106.927 118.038 107.113 117.924 107.269 117.773C107.425 117.62 107.546 117.43 107.631 117.202L108.603 117.475C108.501 117.805 108.329 118.094 108.087 118.344C107.846 118.592 107.547 118.785 107.192 118.924C106.837 119.06 106.438 119.129 105.995 119.129ZM109.826 117.322H110.9C110.922 117.617 111.056 117.842 111.3 117.995C111.547 118.148 111.868 118.225 112.263 118.225C112.667 118.225 113.012 118.143 113.299 117.978C113.586 117.81 113.729 117.54 113.729 117.168C113.729 116.95 113.675 116.759 113.567 116.597C113.459 116.433 113.307 116.305 113.111 116.214C112.915 116.123 112.684 116.077 112.417 116.077H111.292V115.174H112.417C112.817 115.174 113.113 115.083 113.303 114.901C113.496 114.719 113.593 114.492 113.593 114.219C113.593 113.927 113.489 113.692 113.282 113.516C113.074 113.337 112.78 113.248 112.4 113.248C112.016 113.248 111.697 113.335 111.441 113.508C111.185 113.678 111.05 113.898 111.036 114.168H109.979C109.991 113.816 110.099 113.505 110.303 113.235C110.508 112.962 110.786 112.749 111.138 112.596C111.491 112.44 111.894 112.362 112.349 112.362C112.809 112.362 113.208 112.442 113.546 112.604C113.887 112.763 114.15 112.981 114.334 113.256C114.522 113.529 114.616 113.839 114.616 114.185C114.616 114.555 114.512 114.853 114.305 115.08C114.097 115.308 113.837 115.469 113.525 115.566V115.634C113.772 115.651 113.986 115.731 114.168 115.873C114.353 116.012 114.496 116.195 114.599 116.423C114.701 116.647 114.752 116.896 114.752 117.168C114.752 117.566 114.645 117.913 114.432 118.208C114.219 118.501 113.927 118.728 113.555 118.89C113.182 119.049 112.758 119.129 112.28 119.129C111.817 119.129 111.403 119.053 111.036 118.903C110.67 118.749 110.378 118.538 110.162 118.268C109.949 117.995 109.837 117.68 109.826 117.322ZM118.909 119.129C118.278 119.129 117.734 118.989 117.277 118.711C116.822 118.43 116.471 118.038 116.224 117.535C115.98 117.029 115.858 116.441 115.858 115.771C115.858 115.1 115.98 114.509 116.224 113.998C116.471 113.484 116.815 113.083 117.256 112.796C117.699 112.506 118.216 112.362 118.807 112.362C119.148 112.362 119.484 112.418 119.817 112.532C120.149 112.646 120.452 112.83 120.724 113.086C120.997 113.339 121.214 113.674 121.376 114.092C121.538 114.509 121.619 115.023 121.619 115.634V116.06H116.574V115.191H120.596C120.596 114.822 120.523 114.492 120.375 114.202C120.23 113.913 120.023 113.684 119.753 113.516C119.486 113.349 119.17 113.265 118.807 113.265C118.406 113.265 118.059 113.364 117.767 113.563C117.477 113.759 117.254 114.015 117.098 114.33C116.942 114.646 116.863 114.984 116.863 115.344V115.924C116.863 116.418 116.949 116.837 117.119 117.181C117.292 117.522 117.532 117.782 117.839 117.961C118.146 118.137 118.503 118.225 118.909 118.225C119.173 118.225 119.412 118.188 119.625 118.114C119.841 118.038 120.027 117.924 120.183 117.773C120.339 117.62 120.46 117.43 120.545 117.202L121.517 117.475C121.415 117.805 121.243 118.094 121.001 118.344C120.76 118.592 120.461 118.785 120.106 118.924C119.751 119.06 119.352 119.129 118.909 119.129ZM127.53 115.259V116.197H123.916V115.259H127.53ZM124.155 112.447V118.992H123.149V112.447H124.155ZM128.297 112.447V118.992H127.291V112.447H128.297ZM129.243 113.384V112.447H134.561V113.384H132.413V118.992H131.407V113.384H129.243ZM137.614 119.146C137.199 119.146 136.823 119.067 136.485 118.911C136.147 118.752 135.878 118.523 135.68 118.225C135.481 117.924 135.381 117.56 135.381 117.134C135.381 116.759 135.455 116.455 135.603 116.222C135.751 115.987 135.948 115.802 136.195 115.668C136.442 115.535 136.715 115.435 137.013 115.37C137.314 115.302 137.617 115.248 137.921 115.208C138.319 115.157 138.641 115.119 138.888 115.093C139.138 115.065 139.32 115.018 139.434 114.952C139.55 114.887 139.608 114.773 139.608 114.612V114.577C139.608 114.157 139.493 113.83 139.263 113.597C139.036 113.364 138.691 113.248 138.228 113.248C137.748 113.248 137.371 113.353 137.099 113.563C136.826 113.773 136.634 113.998 136.523 114.237L135.569 113.896C135.739 113.498 135.966 113.188 136.251 112.967C136.537 112.742 136.85 112.586 137.188 112.498C137.529 112.407 137.864 112.362 138.194 112.362C138.404 112.362 138.645 112.387 138.918 112.438C139.194 112.487 139.459 112.587 139.715 112.741C139.974 112.894 140.188 113.126 140.358 113.435C140.529 113.745 140.614 114.16 140.614 114.68V118.992H139.608V118.106H139.557C139.489 118.248 139.376 118.4 139.216 118.562C139.057 118.724 138.846 118.862 138.581 118.975C138.317 119.089 137.995 119.146 137.614 119.146ZM137.768 118.242C138.165 118.242 138.501 118.164 138.773 118.008C139.049 117.852 139.256 117.65 139.395 117.403C139.537 117.156 139.608 116.896 139.608 116.623V115.702C139.566 115.754 139.472 115.8 139.327 115.843C139.185 115.883 139.02 115.918 138.833 115.95C138.648 115.978 138.468 116.004 138.292 116.026C138.118 116.046 137.978 116.063 137.87 116.077C137.608 116.112 137.364 116.167 137.137 116.244C136.912 116.317 136.731 116.43 136.591 116.58C136.455 116.728 136.387 116.93 136.387 117.185C136.387 117.535 136.516 117.799 136.775 117.978C137.036 118.154 137.367 118.242 137.768 118.242ZM147.597 112.447V118.055H148.518V121.106H147.512V118.992H142.45V112.447H143.455V118.055H146.592V112.447H147.597ZM151.073 117.509L154.226 112.447H155.385V118.992H154.379V113.93L151.243 118.992H150.067V112.447H151.073V117.509ZM158.233 117.509L161.386 112.447H162.545V118.992H161.54V113.93L158.403 118.992H157.227V112.447H158.233V117.509ZM165.887 117.799L165.819 118.259C165.771 118.583 165.697 118.93 165.597 119.299C165.501 119.668 165.4 120.016 165.295 120.343C165.19 120.67 165.103 120.93 165.035 121.123H164.268C164.305 120.941 164.353 120.701 164.413 120.403C164.472 120.104 164.532 119.771 164.592 119.401C164.654 119.035 164.705 118.66 164.745 118.276L164.796 117.799H165.887ZM91.6127 136.225V125.265H92.6184V136.225H91.6127ZM91.6127 134.129C91.1696 134.129 90.7662 134.049 90.4025 133.89C90.0389 133.728 89.7264 133.499 89.465 133.204C89.2037 132.906 89.002 132.549 88.8599 132.134C88.7179 131.719 88.6468 131.259 88.6468 130.754C88.6468 130.242 88.7179 129.779 88.8599 129.364C89.002 128.947 89.2037 128.589 89.465 128.29C89.7264 127.992 90.0389 127.763 90.4025 127.604C90.7662 127.442 91.1696 127.362 91.6127 127.362H91.9196V134.129H91.6127ZM91.6127 133.225H91.7832V128.265H91.6127C91.2775 128.265 90.9863 128.333 90.7392 128.469C90.492 128.603 90.2875 128.786 90.1255 129.019C89.9664 129.249 89.8471 129.513 89.7676 129.812C89.6909 130.11 89.6525 130.424 89.6525 130.754C89.6525 131.191 89.7221 131.597 89.8613 131.972C90.0005 132.347 90.215 132.65 90.5048 132.88C90.7946 133.11 91.1639 133.225 91.6127 133.225ZM92.6184 134.129H92.3116V127.362H92.6184C93.0616 127.362 93.465 127.442 93.8287 127.604C94.1923 127.763 94.5048 127.992 94.7662 128.29C95.0275 128.589 95.2292 128.947 95.3713 129.364C95.5133 129.779 95.5843 130.242 95.5843 130.754C95.5843 131.259 95.5133 131.719 95.3713 132.134C95.2292 132.549 95.0275 132.906 94.7662 133.204C94.5048 133.499 94.1923 133.728 93.8287 133.89C93.465 134.049 93.0616 134.129 92.6184 134.129ZM92.6184 133.225C92.9565 133.225 93.2477 133.16 93.492 133.029C93.7392 132.896 93.9423 132.714 94.1014 132.484C94.2633 132.251 94.3826 131.987 94.4593 131.691C94.5389 131.393 94.5787 131.08 94.5787 130.754C94.5787 130.316 94.5091 129.908 94.3699 129.531C94.2306 129.153 94.0162 128.847 93.7264 128.614C93.4366 128.381 93.0673 128.265 92.6184 128.265H92.448V133.225H92.6184ZM98.1273 132.509L101.281 127.447H102.44V133.992H101.434V128.93L98.2978 133.992H97.1216V127.447H98.1273V132.509ZM104.282 136.447V127.447H105.253V128.487H105.373C105.447 128.373 105.549 128.228 105.68 128.052C105.813 127.873 106.003 127.714 106.251 127.575C106.501 127.433 106.839 127.362 107.265 127.362C107.816 127.362 108.302 127.499 108.722 127.775C109.143 128.05 109.471 128.441 109.706 128.947C109.942 129.452 110.06 130.049 110.06 130.737C110.06 131.43 109.942 132.031 109.706 132.539C109.471 133.045 109.144 133.437 108.726 133.715C108.309 133.991 107.827 134.129 107.282 134.129C106.861 134.129 106.525 134.059 106.272 133.92C106.019 133.778 105.824 133.617 105.688 133.438C105.552 133.256 105.447 133.106 105.373 132.987H105.287V136.447H104.282ZM105.27 130.719C105.27 131.214 105.343 131.65 105.488 132.028C105.633 132.403 105.844 132.697 106.123 132.91C106.401 133.12 106.742 133.225 107.145 133.225C107.566 133.225 107.917 133.114 108.198 132.893C108.482 132.668 108.695 132.367 108.837 131.989C108.982 131.609 109.055 131.185 109.055 130.719C109.055 130.259 108.983 129.844 108.841 129.475C108.702 129.103 108.491 128.809 108.206 128.593C107.925 128.374 107.572 128.265 107.145 128.265C106.736 128.265 106.393 128.369 106.114 128.576C105.836 128.781 105.626 129.067 105.483 129.437C105.341 129.803 105.27 130.231 105.27 130.719ZM115.174 132.629L117.458 127.447H118.412L115.583 133.992H114.765L111.986 127.447H112.924L115.174 132.629ZM112.6 127.447V133.992H111.594V127.447H112.6ZM117.748 133.992V127.447H118.753V133.992H117.748ZM123.339 134.129C122.708 134.129 122.164 133.989 121.706 133.711C121.252 133.43 120.901 133.038 120.654 132.535C120.41 132.029 120.287 131.441 120.287 130.771C120.287 130.1 120.41 129.509 120.654 128.998C120.901 128.484 121.245 128.083 121.685 127.796C122.128 127.506 122.645 127.362 123.236 127.362C123.577 127.362 123.914 127.418 124.246 127.532C124.579 127.646 124.881 127.83 125.154 128.086C125.427 128.339 125.644 128.674 125.806 129.092C125.968 129.509 126.049 130.023 126.049 130.634V131.06H121.003V130.191H125.026C125.026 129.822 124.952 129.492 124.805 129.202C124.66 128.913 124.452 128.684 124.182 128.516C123.915 128.349 123.6 128.265 123.236 128.265C122.836 128.265 122.489 128.364 122.197 128.563C121.907 128.759 121.684 129.015 121.528 129.33C121.371 129.646 121.293 129.984 121.293 130.344V130.924C121.293 131.418 121.378 131.837 121.549 132.181C121.722 132.522 121.962 132.782 122.269 132.961C122.576 133.137 122.932 133.225 123.339 133.225C123.603 133.225 123.841 133.188 124.055 133.114C124.27 133.038 124.456 132.924 124.613 132.773C124.769 132.62 124.89 132.43 124.975 132.202L125.947 132.475C125.844 132.805 125.672 133.094 125.431 133.344C125.189 133.592 124.891 133.785 124.536 133.924C124.181 134.06 123.782 134.129 123.339 134.129ZM131.959 130.259V131.197H128.346V130.259H131.959ZM128.584 127.447V133.992H127.579V127.447H128.584ZM132.726 127.447V133.992H131.721V127.447H132.726ZM138.944 130.259V131.197H135.33V130.259H138.944ZM135.569 127.447V133.992H134.563V127.447H135.569ZM139.711 127.447V133.992H138.705V127.447H139.711ZM142.417 129.816H144.292C145.059 129.816 145.645 130.011 146.052 130.4C146.458 130.789 146.661 131.282 146.661 131.879C146.661 132.271 146.57 132.627 146.388 132.948C146.206 133.266 145.939 133.521 145.587 133.711C145.235 133.898 144.803 133.992 144.292 133.992H141.547V127.447H142.553V133.055H144.292C144.689 133.055 145.016 132.95 145.272 132.739C145.528 132.529 145.655 132.259 145.655 131.93C145.655 131.583 145.528 131.3 145.272 131.082C145.016 130.863 144.689 130.754 144.292 130.754H142.417V129.816ZM147.701 133.992V127.447H148.706V133.992H147.701ZM151.553 132.509L154.706 127.447H155.866V133.992H154.86V128.93L151.724 133.992H150.547V127.447H151.553V132.509ZM154.042 125.265H154.979C154.979 125.725 154.82 126.102 154.502 126.394C154.184 126.687 153.752 126.833 153.206 126.833C152.67 126.833 152.242 126.687 151.924 126.394C151.608 126.102 151.451 125.725 151.451 125.265H152.388C152.388 125.487 152.449 125.681 152.572 125.849C152.697 126.016 152.908 126.1 153.206 126.1C153.505 126.1 153.718 126.016 153.846 125.849C153.976 125.681 154.042 125.487 154.042 125.265ZM163.742 134.129C163.128 134.129 162.6 133.984 162.156 133.694C161.713 133.404 161.372 133.005 161.134 132.496C160.895 131.988 160.776 131.407 160.776 130.754C160.776 130.089 160.898 129.502 161.142 128.994C161.389 128.482 161.733 128.083 162.173 127.796C162.617 127.506 163.134 127.362 163.725 127.362C164.185 127.362 164.6 127.447 164.969 127.617C165.338 127.788 165.641 128.026 165.877 128.333C166.112 128.64 166.259 128.998 166.316 129.407H165.31C165.233 129.109 165.063 128.844 164.798 128.614C164.537 128.381 164.185 128.265 163.742 128.265C163.35 128.265 163.006 128.367 162.71 128.572C162.418 128.773 162.189 129.059 162.024 129.428C161.862 129.795 161.781 130.225 161.781 130.719C161.781 131.225 161.861 131.665 162.02 132.04C162.182 132.415 162.409 132.707 162.702 132.914C162.997 133.121 163.344 133.225 163.742 133.225C164.003 133.225 164.24 133.18 164.453 133.089C164.666 132.998 164.847 132.867 164.994 132.697C165.142 132.526 165.247 132.322 165.31 132.083H166.316C166.259 132.469 166.118 132.817 165.894 133.127C165.672 133.434 165.378 133.678 165.012 133.86C164.648 134.039 164.225 134.129 163.742 134.129ZM167.27 128.384V127.447H172.588V128.384H170.441V133.992H169.435V128.384H167.27ZM175.061 132.509L178.214 127.447H179.373V133.992H178.368V128.93L175.231 133.992H174.055V127.447H175.061V132.509ZM180.636 133.992V133.055H180.874C181.07 133.055 181.234 133.016 181.365 132.94C181.495 132.86 181.6 132.722 181.68 132.526C181.762 132.327 181.825 132.052 181.867 131.7C181.913 131.344 181.945 130.893 181.965 130.344L182.085 127.447H186.448V133.992H185.443V128.384H183.039L182.937 130.719C182.914 131.256 182.866 131.729 182.792 132.138C182.721 132.545 182.612 132.886 182.464 133.161C182.319 133.437 182.126 133.644 181.884 133.783C181.643 133.923 181.34 133.992 180.977 133.992H180.636ZM189.163 129.816H191.038C191.805 129.816 192.392 130.011 192.798 130.4C193.204 130.789 193.407 131.282 193.407 131.879C193.407 132.271 193.316 132.627 193.134 132.948C192.953 133.266 192.686 133.521 192.333 133.711C191.981 133.898 191.549 133.992 191.038 133.992H188.294V127.447H189.299V133.055H191.038C191.436 133.055 191.762 132.95 192.018 132.739C192.274 132.529 192.401 132.259 192.401 131.93C192.401 131.583 192.274 131.3 192.018 131.082C191.762 130.863 191.436 130.754 191.038 130.754H189.163V129.816Z" fill="#2A2A3C"/>
</svg>
