<svg width="25" height="16" viewBox="0 0 25 16" fill="none" xmlns="http://www.w3.org/2000/svg">
<path fill-rule="evenodd" clip-rule="evenodd" d="M11.1446 0.0801781C11.1013 0.0560716 11.0797 0.0440184 11.0562 0.0355151C11.0354 0.0279637 11.0135 0.0225083 10.9908 0.0192226C10.9653 0.0155228 10.9386 0.0155228 10.8851 0.0155228H9.69609C9.56479 0.0155228 9.49914 0.0155227 9.43756 0.0350419C9.38309 0.0523048 9.33117 0.0804904 9.28547 0.1176C9.23381 0.159559 9.19357 0.217041 9.11309 0.332004L5.2972 5.78297C5.22992 5.87908 5.19627 5.92714 5.17719 5.9777C5.16029 6.02248 5.15179 6.06852 5.15213 6.11341C5.15252 6.16411 5.16835 6.21249 5.20002 6.30927L5.49289 7.20419C5.58425 7.48334 5.62992 7.62291 5.59256 7.73633C5.55993 7.83537 5.48843 7.92397 5.39485 7.98131C5.28768 8.04697 5.12936 8.04697 4.81272 8.04697H4.07376C3.94246 8.04697 3.87681 8.04697 3.81522 8.06649C3.76076 8.08375 3.70884 8.11194 3.66314 8.14905C3.61148 8.19101 3.57124 8.24849 3.49076 8.36345L1.59488 11.0717C1.39822 11.3526 1.29989 11.4931 1.29578 11.6075C1.2922 11.7073 1.33181 11.7969 1.4052 11.855C1.48927 11.9215 1.64969 11.9215 1.97053 11.9215H4.19437C4.32117 11.9215 4.38456 11.9215 4.44438 11.9031C4.4973 11.8869 4.54795 11.8603 4.59295 11.8251C4.64381 11.7854 4.68432 11.7308 4.76533 11.6217L6.01219 9.94241C6.0932 9.8333 6.13371 9.77875 6.18457 9.73902C6.22957 9.70388 6.28022 9.67729 6.33314 9.66102C6.39295 9.64263 6.45635 9.64263 6.58314 9.64263H9.65762C9.85617 9.64263 9.95544 9.64263 10.026 9.68002C10.0882 9.71293 10.1349 9.76558 10.1599 9.83087C10.1884 9.90505 10.1758 10.0027 10.1505 10.1979L9.99953 11.3662C9.9743 11.5615 9.96168 11.6591 9.99011 11.7333C10.0151 11.7986 10.0619 11.8512 10.124 11.8841C10.1946 11.9215 10.2939 11.9215 10.4924 11.9215H22.2848C22.4922 11.9215 22.5958 11.9215 22.6821 11.8818C22.7579 11.8468 22.8245 11.7911 22.8722 11.7225C22.9264 11.6445 22.9445 11.5425 22.9808 11.3384L23.2371 9.89683C23.2734 9.69271 23.2915 9.59065 23.265 9.51268C23.2417 9.4441 23.195 9.38835 23.1316 9.3534C23.0594 9.31368 22.9558 9.31368 22.7485 9.31368H18.8251C18.4441 9.31368 18.2535 9.31368 18.1668 9.23621C18.0913 9.1688 18.0574 9.06627 18.0745 8.95692C18.0941 8.83126 18.2351 8.68113 18.5169 8.38088L24.5555 1.94832C24.6097 1.89065 24.6367 1.86181 24.6579 1.83006C24.6768 1.80189 24.6922 1.77208 24.7037 1.74137C24.7167 1.70676 24.7231 1.67073 24.736 1.59866L24.9165 0.583147C24.9528 0.379026 24.9709 0.276966 24.9444 0.199002C24.9211 0.130424 24.8744 0.0746672 24.811 0.0397245C24.7389 0 24.6352 0 24.4279 0H15.7271C15.5197 0 15.4161 0 15.3298 0.0397245C15.254 0.0746672 15.1874 0.130424 15.1397 0.199002C15.0855 0.276966 15.0674 0.379026 15.0311 0.583147L14.7748 2.02468C14.7385 2.2288 14.7204 2.33086 14.7469 2.40883C14.7702 2.47741 14.8169 2.53316 14.8803 2.56811C14.9525 2.60783 15.0561 2.60783 15.2634 2.60783H19.1868C19.5678 2.60783 19.7584 2.60783 19.8451 2.6853C19.9206 2.75272 19.9545 2.85525 19.9374 2.9646C19.9178 3.09025 19.7768 3.24038 19.495 3.54064L14.5843 8.77168C14.2536 9.124 14.0882 9.30016 13.9499 9.32969C13.8298 9.35532 13.7143 9.32503 13.6389 9.24821C13.5521 9.15968 13.5585 8.94187 13.5714 8.50625L13.7682 1.84322C13.7714 1.73447 13.773 1.6801 13.7593 1.63254C13.7472 1.59043 13.7263 1.55239 13.6979 1.52046C13.6658 1.48439 13.6207 1.45924 13.5304 1.40895L11.1446 0.0801781ZM10.9843 3.29432C11.017 3.29432 11.0395 3.31961 11.0353 3.35178L10.6138 6.61324C10.5863 6.8261 10.5725 6.93253 10.5191 7.01428C10.4722 7.08614 10.4047 7.14507 10.3268 7.1821C10.2382 7.22423 10.13 7.22423 9.91357 7.22423H9.03737C8.7061 7.22423 8.54046 7.22423 8.45581 7.15566C8.38195 7.09583 8.34331 7.00374 8.34935 6.90196C8.35628 6.7853 8.4621 6.64277 8.67376 6.35771L10.9252 3.32534C10.9394 3.30619 10.9621 3.29432 10.9843 3.29432Z" fill="#BE2F25"/>
<path d="M0.976562 12.0467L14.2033 14.8751C14.3915 14.9153 14.5236 14.6408 14.3506 14.569C14.18 14.4982 14.3059 14.2278 14.4934 14.262L19.9317 15.2559C19.9506 15.2594 19.96 15.2611 19.9696 15.2623C19.9781 15.2634 19.9868 15.2641 19.9954 15.2646C20.0052 15.2651 20.0151 15.2651 20.0349 15.2651H21.7266C21.9848 15.2651 22.1138 15.2651 22.161 15.2537C22.4759 15.1778 22.6221 14.7919 22.4054 14.6086C22.373 14.5812 22.2623 14.5327 22.0408 14.4359L20.0529 13.5665C19.9514 13.5221 19.8398 13.6653 19.919 13.7385C19.9891 13.8032 19.9081 13.9326 19.8073 13.9169L10.7973 12.5131C10.5442 12.4736 10.3434 12.8013 10.5237 12.9595C10.7033 13.117 10.505 13.4433 10.2523 13.4063L0.976562 12.0467Z" fill="#BE2F25"/>
</svg>
