<svg width="17" height="17" viewBox="0 0 17 17" fill="none" xmlns="http://www.w3.org/2000/svg">
<g filter="url(#filter0_d_1_222)">
<path d="M6.37869 11.5992L8.23231 9.74563L8.7983 10.3117C9.37777 10.8912 9.66754 11.1809 9.97892 11.1125C10.2904 11.0441 10.432 10.6596 10.7153 9.89059L11.6602 7.32594C12.2254 5.79188 12.508 5.02486 12.1127 4.62953C11.7173 4.2342 10.9503 4.51679 9.41625 5.08197L6.8516 6.02685C6.08259 6.31016 5.69809 6.45181 5.62971 6.76326C5.56133 7.07465 5.85103 7.36442 6.4305 7.94389L6.99656 8.50988L5.14301 10.3635C4.95106 10.5554 4.85513 10.6514 4.81077 10.7584C4.75166 10.9012 4.75166 11.0615 4.81077 11.2043C4.85513 11.3113 4.95106 11.4073 5.14301 11.5992C5.33489 11.7911 5.4309 11.8871 5.53791 11.9314C5.68069 11.9905 5.84101 11.9905 5.98379 11.9314C6.0908 11.8871 6.18681 11.7911 6.37869 11.5992Z" stroke="white" stroke-width="1.12957" stroke-linecap="round" stroke-linejoin="round" shape-rendering="crispEdges"/>
</g>
<g opacity="0.5" filter="url(#filter1_d_1_222)">
<path d="M16.0625 8.21112C16.0625 4.66123 16.0625 2.88628 14.9597 1.78348C13.8569 0.680664 12.0819 0.680664 8.53204 0.680664C4.98218 0.680664 3.20718 0.680664 2.10442 1.78348C1.00158 2.88628 1.00158 4.66123 1.00158 8.21112C1.00158 11.761 1.00158 13.536 2.10442 14.6387C3.20718 15.7416 4.98218 15.7416 8.53204 15.7416C12.0819 15.7416 13.8569 15.7416 14.9597 14.6387C16.0625 13.536 16.0625 11.761 16.0625 8.21112Z" stroke="white" stroke-width="1.12957" shape-rendering="crispEdges"/>
</g>
<defs>
<filter id="filter0_d_1_222" x="4.20166" y="3.88086" width="8.65973" height="9.22494" filterUnits="userSpaceOnUse" color-interpolation-filters="sRGB">
<feFlood flood-opacity="0" result="BackgroundImageFix"/>
<feColorMatrix in="SourceAlpha" type="matrix" values="0 0 0 0 0 0 0 0 0 0 0 0 0 0 0 0 0 0 127 0" result="hardAlpha"/>
<feOffset dy="0.564784"/>
<feComposite in2="hardAlpha" operator="out"/>
<feColorMatrix type="matrix" values="0 0 0 0 0 0 0 0 0 0 0 0 0 0 0 0 0 0 0.25 0"/>
<feBlend mode="normal" in2="BackgroundImageFix" result="effect1_dropShadow_1_222"/>
<feBlend mode="normal" in="SourceGraphic" in2="effect1_dropShadow_1_222" result="shape"/>
</filter>
<filter id="filter1_d_1_222" x="0.436768" y="0.116211" width="16.1905" height="16.7552" filterUnits="userSpaceOnUse" color-interpolation-filters="sRGB">
<feFlood flood-opacity="0" result="BackgroundImageFix"/>
<feColorMatrix in="SourceAlpha" type="matrix" values="0 0 0 0 0 0 0 0 0 0 0 0 0 0 0 0 0 0 127 0" result="hardAlpha"/>
<feOffset dy="0.564784"/>
<feComposite in2="hardAlpha" operator="out"/>
<feColorMatrix type="matrix" values="0 0 0 0 0 0 0 0 0 0 0 0 0 0 0 0 0 0 0.25 0"/>
<feBlend mode="normal" in2="BackgroundImageFix" result="effect1_dropShadow_1_222"/>
<feBlend mode="normal" in="SourceGraphic" in2="effect1_dropShadow_1_222" result="shape"/>
</filter>
</defs>
</svg>
