<svg width="17" height="18" viewBox="0 0 17 18" fill="none" xmlns="http://www.w3.org/2000/svg">
<g filter="url(#filter0_d_0_803)">
<path d="M6.65359 11.9195L8.50721 10.0659L9.0732 10.632C9.65267 11.2115 9.94244 11.5012 10.2538 11.4328C10.5653 11.3644 10.7069 10.9799 10.9902 10.2109L11.9351 7.64625C12.5003 6.11219 12.7829 5.34517 12.3876 4.94984C11.9922 4.55452 11.2252 4.8371 9.69115 5.40228L7.1265 6.34716C6.35749 6.63048 5.97299 6.77212 5.90461 7.08358C5.83623 7.39496 6.12593 7.68473 6.7054 8.2642L7.27146 8.83019L5.41792 10.6838C5.22597 10.8757 5.13003 10.9717 5.08567 11.0787C5.02656 11.2215 5.02656 11.3818 5.08567 11.5246C5.13003 11.6316 5.22597 11.7276 5.41792 11.9195C5.60979 12.1114 5.70581 12.2074 5.81281 12.2517C5.95559 12.3108 6.11592 12.3108 6.25869 12.2517C6.3657 12.2074 6.46171 12.1114 6.65359 11.9195Z" stroke="white" stroke-width="1.12957" stroke-linecap="round" stroke-linejoin="round" shape-rendering="crispEdges"/>
</g>
<g opacity="0.5" filter="url(#filter1_d_0_803)">
<path d="M16.3374 8.53046C16.3374 4.98056 16.3374 3.20562 15.2346 2.10281C14.1318 1 12.3568 1 8.80694 1C5.25708 1 3.48208 1 2.37932 2.10281C1.27648 3.20562 1.27648 4.98056 1.27648 8.53046C1.27648 12.0803 1.27648 13.8553 2.37932 14.9581C3.48208 16.0609 5.25708 16.0609 8.80694 16.0609C12.3568 16.0609 14.1318 16.0609 15.2346 14.9581C16.3374 13.8553 16.3374 12.0803 16.3374 8.53046Z" stroke="white" stroke-width="1.12957" shape-rendering="crispEdges"/>
</g>
<defs>
<filter id="filter0_d_0_803" x="4.47656" y="4.20117" width="8.65973" height="9.22445" filterUnits="userSpaceOnUse" color-interpolation-filters="sRGB">
<feFlood flood-opacity="0" result="BackgroundImageFix"/>
<feColorMatrix in="SourceAlpha" type="matrix" values="0 0 0 0 0 0 0 0 0 0 0 0 0 0 0 0 0 0 127 0" result="hardAlpha"/>
<feOffset dy="0.564784"/>
<feComposite in2="hardAlpha" operator="out"/>
<feColorMatrix type="matrix" values="0 0 0 0 0 0 0 0 0 0 0 0 0 0 0 0 0 0 0.25 0"/>
<feBlend mode="normal" in2="BackgroundImageFix" result="effect1_dropShadow_0_803"/>
<feBlend mode="normal" in="SourceGraphic" in2="effect1_dropShadow_0_803" result="shape"/>
</filter>
<filter id="filter1_d_0_803" x="0.71167" y="0.435059" width="16.1905" height="16.7552" filterUnits="userSpaceOnUse" color-interpolation-filters="sRGB">
<feFlood flood-opacity="0" result="BackgroundImageFix"/>
<feColorMatrix in="SourceAlpha" type="matrix" values="0 0 0 0 0 0 0 0 0 0 0 0 0 0 0 0 0 0 127 0" result="hardAlpha"/>
<feOffset dy="0.564784"/>
<feComposite in2="hardAlpha" operator="out"/>
<feColorMatrix type="matrix" values="0 0 0 0 0 0 0 0 0 0 0 0 0 0 0 0 0 0 0.25 0"/>
<feBlend mode="normal" in2="BackgroundImageFix" result="effect1_dropShadow_0_803"/>
<feBlend mode="normal" in="SourceGraphic" in2="effect1_dropShadow_0_803" result="shape"/>
</filter>
</defs>
</svg>
