<svg width="223" height="94" viewBox="0 0 223 94" fill="none" xmlns="http://www.w3.org/2000/svg">
<path fill-rule="evenodd" clip-rule="evenodd" d="M36.1325 0.284915C35.9787 0.199252 35.9018 0.156421 35.8184 0.126204C35.7443 0.0993696 35.6665 0.0799837 35.5859 0.0683081C35.4953 0.0551605 35.4002 0.0551605 35.2101 0.0551605H30.9851C30.5185 0.0551605 30.2852 0.0551605 30.0664 0.124522C29.8728 0.185867 29.6883 0.286025 29.5259 0.417894C29.3424 0.566997 29.1994 0.77126 28.9134 1.17979L15.3535 20.5499C15.1144 20.8915 14.9949 21.0622 14.9271 21.2419C14.867 21.4011 14.8368 21.5646 14.838 21.7242C14.8394 21.9043 14.8956 22.0763 15.0082 22.4202L16.0489 25.6003C16.3735 26.5922 16.5358 27.0882 16.4031 27.4913C16.2871 27.8432 16.033 28.158 15.7005 28.3618C15.3197 28.5951 14.7571 28.5951 13.6319 28.5951H11.006C10.5394 28.5951 10.3061 28.5951 10.0873 28.6645C9.89371 28.7258 9.70921 28.826 9.54683 28.9579C9.36324 29.107 9.22025 29.3112 8.93426 29.7198L2.19719 39.3436C1.49836 40.3419 1.14895 40.841 1.13435 41.2474C1.12161 41.6023 1.26238 41.9207 1.52319 42.1271C1.82193 42.3634 2.39199 42.3634 3.5321 42.3634H11.4346C11.8851 42.3634 12.1104 42.3634 12.323 42.2981C12.511 42.2403 12.691 42.1458 12.8509 42.0209C13.0317 41.8797 13.1756 41.6859 13.4635 41.2982L17.8942 35.3306C18.1821 34.9429 18.3261 34.7491 18.5068 34.6079C18.6667 34.483 18.8467 34.3885 19.0347 34.3307C19.2473 34.2654 19.4726 34.2654 19.9231 34.2654H30.8484C31.5539 34.2654 31.9067 34.2654 32.1576 34.3982C32.3784 34.5152 32.5445 34.7023 32.6334 34.9343C32.7344 35.1979 32.6896 35.5448 32.5999 36.2387L32.0634 40.3901C31.9737 41.084 31.9289 41.4309 32.0299 41.6945C32.1188 41.9265 32.2849 42.1136 32.5057 42.2306C32.7566 42.3634 33.1093 42.3634 33.8149 42.3634H75.7196C76.4563 42.3634 76.8247 42.3634 77.1311 42.2223C77.4007 42.0981 77.6372 41.9 77.8066 41.6563C77.9993 41.3792 78.0637 41.0165 78.1927 40.2912L79.1034 35.1687C79.2323 34.4433 79.2968 34.0806 79.2027 33.8036C79.1199 33.5599 78.9539 33.3618 78.7284 33.2376C78.4721 33.0964 78.1038 33.0964 77.367 33.0964H63.4253C62.0712 33.0964 61.3942 33.0964 61.0859 32.8211C60.8176 32.5816 60.6973 32.2172 60.758 31.8286C60.8278 31.3821 61.3286 30.8486 62.3302 29.7817L83.7885 6.9234C83.9809 6.71846 84.077 6.61599 84.1525 6.50317C84.2194 6.40305 84.2741 6.29712 84.3151 6.18799C84.3614 6.06501 84.3841 5.93697 84.4297 5.68089L85.0712 2.07223C85.2002 1.34688 85.2646 0.984207 85.1705 0.707161C85.0877 0.463464 84.9217 0.265332 84.6963 0.141162C84.44 0 84.0716 0 83.3349 0H52.4163C51.6796 0 51.3112 0 51.0047 0.141162C50.7351 0.265332 50.4987 0.463464 50.3292 0.707161C50.1366 0.984207 50.0721 1.34688 49.9432 2.07223L49.0325 7.19477C48.9035 7.92012 48.8391 8.28279 48.9332 8.55984C49.016 8.80354 49.182 9.00167 49.4074 9.12584C49.6637 9.267 50.0321 9.267 50.7688 9.267H64.7105C66.0646 9.267 66.7417 9.267 67.0499 9.54229C67.3182 9.78185 67.4386 10.1462 67.3778 10.5348C67.3081 10.9813 66.8072 11.5148 65.8056 12.5817L48.3555 31.1704C47.1802 32.4224 46.5925 33.0484 46.101 33.1533C45.6745 33.2444 45.2638 33.1368 44.9961 32.8638C44.6875 32.5492 44.7104 31.7752 44.7561 30.2272L45.4554 6.54992C45.4668 6.16349 45.4725 5.97027 45.4238 5.80128C45.3807 5.65164 45.3066 5.51646 45.2057 5.40298C45.0916 5.27483 44.9312 5.18546 44.6103 5.00673L36.1325 0.284915ZM35.5628 11.7065C35.679 11.7065 35.7588 11.7963 35.744 11.9106L34.2462 23.5003C34.1484 24.2567 34.0996 24.6349 33.9098 24.9254C33.743 25.1808 33.503 25.3902 33.2263 25.5218C32.9116 25.6715 32.527 25.6715 31.7579 25.6715H28.6443C27.4671 25.6715 26.8785 25.6715 26.5777 25.4278C26.3152 25.2152 26.1779 24.888 26.1994 24.5263C26.224 24.1118 26.6001 23.6053 27.3522 22.5923L35.3529 11.8167C35.4034 11.7487 35.4837 11.7065 35.5628 11.7065Z" fill="#F1632B"/>
<path d="M0 42.8083L47.0016 52.8589C47.6703 53.0019 48.1396 52.0265 47.5249 51.7713C46.9189 51.5197 47.3662 50.5588 48.0326 50.6806L67.3577 54.2123C67.4248 54.2246 67.4583 54.2307 67.4924 54.235C67.5227 54.2388 67.5533 54.2415 67.5841 54.2432C67.6189 54.245 67.654 54.245 67.7243 54.245H73.7359C74.6532 54.245 75.1119 54.245 75.2796 54.2046C76.3985 53.9347 76.918 52.5635 76.1481 51.9122C76.0328 51.8146 75.6393 51.6425 74.8524 51.2983L67.7885 48.2089C67.4276 48.051 67.0309 48.5601 67.3123 48.82C67.5615 49.0501 67.2738 49.5098 66.9156 49.454L34.8984 44.4655C33.9988 44.3254 33.2852 45.4897 33.9261 46.0519C34.5642 46.6117 33.8596 47.7711 32.9614 47.6395L0 42.8083Z" fill="#F1632B"/>
<path d="M114.614 16.7273H111.409C111.386 16.4621 111.326 16.2216 111.227 16.0057C111.133 15.7898 111 15.6042 110.83 15.4489C110.663 15.2898 110.46 15.1686 110.222 15.0852C109.983 14.9981 109.712 14.9545 109.409 14.9545C108.879 14.9545 108.43 15.0833 108.062 15.3409C107.699 15.5985 107.422 15.9678 107.233 16.4489C107.047 16.9299 106.955 17.5076 106.955 18.1818C106.955 18.8939 107.049 19.4905 107.239 19.9716C107.432 20.4489 107.71 20.8087 108.074 21.0511C108.438 21.2898 108.875 21.4091 109.386 21.4091C109.678 21.4091 109.939 21.3731 110.17 21.3011C110.402 21.2254 110.602 21.1174 110.773 20.9773C110.943 20.8371 111.081 20.6686 111.188 20.4716C111.297 20.2708 111.371 20.0455 111.409 19.7955L114.614 19.8182C114.576 20.3106 114.438 20.8125 114.199 21.3239C113.96 21.8314 113.621 22.3011 113.182 22.733C112.746 23.161 112.206 23.5057 111.562 23.767C110.919 24.0284 110.17 24.1591 109.318 24.1591C108.25 24.1591 107.292 23.9299 106.443 23.4716C105.598 23.0133 104.93 22.339 104.438 21.4489C103.949 20.5587 103.705 19.4697 103.705 18.1818C103.705 16.8864 103.955 15.7955 104.455 14.9091C104.955 14.0189 105.629 13.3466 106.477 12.892C107.326 12.4337 108.273 12.2045 109.318 12.2045C110.053 12.2045 110.729 12.3049 111.347 12.5057C111.964 12.7064 112.506 13 112.972 13.3864C113.438 13.7689 113.813 14.2405 114.097 14.8011C114.381 15.3617 114.553 16.0038 114.614 16.7273ZM116.047 24V12.3636H121.07C121.933 12.3636 122.689 12.5208 123.337 12.8352C123.984 13.1496 124.488 13.6023 124.848 14.1932C125.208 14.7841 125.388 15.4924 125.388 16.3182C125.388 17.1515 125.202 17.8542 124.831 18.4261C124.464 18.9981 123.946 19.4299 123.28 19.7216C122.617 20.0133 121.842 20.1591 120.956 20.1591H117.956V17.7045H120.32C120.691 17.7045 121.007 17.6591 121.268 17.5682C121.534 17.4735 121.736 17.3239 121.876 17.1193C122.02 16.9148 122.092 16.6477 122.092 16.3182C122.092 15.9848 122.02 15.714 121.876 15.5057C121.736 15.2936 121.534 15.1383 121.268 15.0398C121.007 14.9375 120.691 14.8864 120.32 14.8864H119.206V24H116.047ZM122.865 18.6591L125.774 24H122.342L119.501 18.6591H122.865ZM126.734 24V12.3636H135.121V14.9091H129.893V16.9091H134.689V19.4545H129.893V21.4545H135.098V24H126.734ZM139.71 24H136.301L140.142 12.3636H144.46L148.301 24H144.892L142.347 15.5682H142.256L139.71 24ZM139.074 19.4091H145.483V21.7727H139.074V19.4091ZM147.635 14.9091V12.3636H157.749V14.9091H154.249V24H151.135V14.9091H147.635ZM162.097 12.3636V24H158.938V12.3636H162.097ZM166.776 12.3636L169.162 20.5682H169.253L171.639 12.3636H175.207L171.366 24H167.048L163.207 12.3636H166.776ZM179.487 12.3636V24H176.328V12.3636H179.487ZM180.666 14.9091V12.3636H190.78V14.9091H187.28V24H184.166V14.9091H180.666ZM191.491 12.3636H195.014L197.287 17.0909H197.378L199.651 12.3636H203.173L198.901 20.3409V24H195.764V20.3409L191.491 12.3636ZM110.023 35C109.992 34.6212 109.85 34.3258 109.597 34.1136C109.347 33.9015 108.966 33.7955 108.455 33.7955C108.129 33.7955 107.862 33.8352 107.653 33.9148C107.449 33.9905 107.297 34.0947 107.199 34.2273C107.1 34.3598 107.049 34.5114 107.045 34.6818C107.038 34.822 107.063 34.9489 107.119 35.0625C107.18 35.1723 107.275 35.2727 107.403 35.3636C107.532 35.4508 107.697 35.5303 107.898 35.6023C108.098 35.6742 108.337 35.7386 108.614 35.7955L109.568 36C110.212 36.1364 110.763 36.3163 111.222 36.5398C111.68 36.7633 112.055 37.0265 112.347 37.3295C112.638 37.6288 112.852 37.9659 112.989 38.3409C113.129 38.7159 113.201 39.125 113.205 39.5682C113.201 40.3333 113.009 40.9811 112.631 41.5114C112.252 42.0417 111.71 42.4451 111.006 42.7216C110.305 42.9981 109.462 43.1364 108.477 43.1364C107.466 43.1364 106.583 42.9867 105.83 42.6875C105.08 42.3883 104.496 41.928 104.08 41.3068C103.667 40.6818 103.458 39.8826 103.455 38.9091H106.455C106.473 39.2652 106.563 39.5644 106.722 39.8068C106.881 40.0492 107.104 40.233 107.392 40.358C107.684 40.483 108.03 40.5455 108.432 40.5455C108.769 40.5455 109.051 40.5038 109.278 40.4205C109.506 40.3371 109.678 40.2216 109.795 40.0739C109.913 39.9261 109.973 39.7576 109.977 39.5682C109.973 39.3902 109.915 39.2348 109.801 39.1023C109.691 38.9659 109.509 38.8447 109.256 38.7386C109.002 38.6288 108.659 38.5265 108.227 38.4318L107.068 38.1818C106.038 37.9583 105.225 37.5852 104.631 37.0625C104.04 36.536 103.746 35.8182 103.75 34.9091C103.746 34.1705 103.943 33.5246 104.341 32.9716C104.742 32.4148 105.297 31.9811 106.006 31.6705C106.718 31.3598 107.534 31.2045 108.455 31.2045C109.394 31.2045 110.206 31.3617 110.892 31.6761C111.578 31.9905 112.106 32.4337 112.477 33.0057C112.852 33.5739 113.042 34.2386 113.045 35H110.023ZM114.088 33.9091V31.3636H124.202V33.9091H120.702V43H117.588V33.9091H114.088ZM132.277 31.3636H135.436V38.8182C135.436 39.7045 135.224 40.4716 134.8 41.1193C134.379 41.7633 133.792 42.2614 133.038 42.6136C132.285 42.9621 131.41 43.1364 130.413 43.1364C129.41 43.1364 128.531 42.9621 127.777 42.6136C127.023 42.2614 126.436 41.7633 126.016 41.1193C125.599 40.4716 125.391 39.7045 125.391 38.8182V31.3636H128.55V38.5455C128.55 38.9053 128.629 39.2273 128.788 39.5114C128.947 39.7917 129.167 40.0114 129.447 40.1705C129.732 40.3295 130.054 40.4091 130.413 40.4091C130.777 40.4091 131.099 40.3295 131.379 40.1705C131.66 40.0114 131.879 39.7917 132.038 39.5114C132.197 39.2273 132.277 38.9053 132.277 38.5455V31.3636ZM141.415 43H136.938V31.3636H141.369C142.566 31.3636 143.6 31.5966 144.472 32.0625C145.347 32.5246 146.021 33.1913 146.494 34.0625C146.972 34.9299 147.21 35.9697 147.21 37.1818C147.21 38.3939 146.973 39.4356 146.5 40.3068C146.027 41.1742 145.356 41.8409 144.489 42.3068C143.621 42.7689 142.597 43 141.415 43ZM140.097 40.3182H141.301C141.877 40.3182 142.367 40.2254 142.773 40.0398C143.182 39.8542 143.492 39.5341 143.705 39.0795C143.92 38.625 144.028 37.9924 144.028 37.1818C144.028 36.3712 143.919 35.7386 143.699 35.2841C143.483 34.8295 143.165 34.5095 142.744 34.3239C142.328 34.1383 141.816 34.0455 141.21 34.0455H140.097V40.3182ZM151.831 31.3636V43H148.672V31.3636H151.831ZM164.601 37.1818C164.601 38.4773 164.349 39.5701 163.845 40.4602C163.341 41.3466 162.661 42.0189 161.805 42.4773C160.949 42.9318 159.995 43.1591 158.942 43.1591C157.881 43.1591 156.923 42.9299 156.067 42.4716C155.214 42.0095 154.536 41.3352 154.033 40.4489C153.533 39.5587 153.283 38.4697 153.283 37.1818C153.283 35.8864 153.533 34.7955 154.033 33.9091C154.536 33.0189 155.214 32.3466 156.067 31.892C156.923 31.4337 157.881 31.2045 158.942 31.2045C159.995 31.2045 160.949 31.4337 161.805 31.892C162.661 32.3466 163.341 33.0189 163.845 33.9091C164.349 34.7955 164.601 35.8864 164.601 37.1818ZM161.351 37.1818C161.351 36.4848 161.258 35.8977 161.072 35.4205C160.891 34.9394 160.62 34.5758 160.26 34.3295C159.904 34.0795 159.464 33.9545 158.942 33.9545C158.419 33.9545 157.978 34.0795 157.618 34.3295C157.262 34.5758 156.991 34.9394 156.805 35.4205C156.624 35.8977 156.533 36.4848 156.533 37.1818C156.533 37.8788 156.624 38.4678 156.805 38.9489C156.991 39.4261 157.262 39.7898 157.618 40.0398C157.978 40.286 158.419 40.4091 158.942 40.4091C159.464 40.4091 159.904 40.286 160.26 40.0398C160.62 39.7898 160.891 39.4261 161.072 38.9489C161.258 38.4678 161.351 37.8788 161.351 37.1818Z" fill="#2A2A3C"/>
<path d="M106.58 61.1364C105.966 61.1364 105.438 60.9915 104.994 60.7017C104.551 60.4119 104.21 60.0128 103.972 59.5043C103.733 58.9957 103.614 58.4148 103.614 57.7614C103.614 57.0966 103.736 56.5099 103.98 56.0014C104.227 55.4901 104.571 55.0909 105.011 54.804C105.455 54.5142 105.972 54.3693 106.562 54.3693C107.023 54.3693 107.438 54.4545 107.807 54.625C108.176 54.7955 108.479 55.0341 108.714 55.3409C108.95 55.6477 109.097 56.0057 109.153 56.4148H108.148C108.071 56.1165 107.901 55.8523 107.636 55.6222C107.375 55.3892 107.023 55.2727 106.58 55.2727C106.188 55.2727 105.844 55.375 105.548 55.5795C105.256 55.7812 105.027 56.0668 104.862 56.4361C104.7 56.8026 104.619 57.233 104.619 57.7273C104.619 58.233 104.699 58.6733 104.858 59.0483C105.02 59.4233 105.247 59.7145 105.54 59.9219C105.835 60.1293 106.182 60.233 106.58 60.233C106.841 60.233 107.078 60.1875 107.291 60.0966C107.504 60.0057 107.685 59.875 107.832 59.7045C107.98 59.5341 108.085 59.3295 108.148 59.0909H109.153C109.097 59.4773 108.956 59.8253 108.732 60.1349C108.51 60.4418 108.216 60.6861 107.849 60.8679C107.486 61.0469 107.063 61.1364 106.58 61.1364ZM112.55 61.1534C112.135 61.1534 111.759 61.0753 111.42 60.919C111.082 60.7599 110.814 60.5312 110.615 60.233C110.416 59.9318 110.317 59.5682 110.317 59.142C110.317 58.767 110.391 58.4631 110.538 58.2301C110.686 57.9943 110.884 57.8097 111.131 57.6761C111.378 57.5426 111.651 57.4432 111.949 57.3778C112.25 57.3097 112.553 57.2557 112.857 57.2159C113.254 57.1648 113.577 57.1264 113.824 57.1009C114.074 57.0724 114.256 57.0256 114.369 56.9602C114.486 56.8949 114.544 56.7812 114.544 56.6193V56.5852C114.544 56.1648 114.429 55.8381 114.199 55.6051C113.972 55.3722 113.626 55.2557 113.163 55.2557C112.683 55.2557 112.307 55.3608 112.034 55.571C111.761 55.7812 111.57 56.0057 111.459 56.2443L110.504 55.9034C110.675 55.5057 110.902 55.196 111.186 54.9744C111.473 54.75 111.786 54.5937 112.124 54.5057C112.464 54.4148 112.8 54.3693 113.129 54.3693C113.339 54.3693 113.581 54.3949 113.854 54.446C114.129 54.4943 114.395 54.5952 114.651 54.7486C114.909 54.902 115.124 55.1335 115.294 55.4432C115.464 55.7528 115.55 56.1676 115.55 56.6875V61H114.544V60.1136H114.493C114.425 60.2557 114.311 60.4077 114.152 60.5696C113.993 60.7315 113.781 60.8693 113.517 60.983C113.253 61.0966 112.93 61.1534 112.55 61.1534ZM112.703 60.25C113.101 60.25 113.436 60.1719 113.709 60.0156C113.984 59.8594 114.192 59.6577 114.331 59.4105C114.473 59.1634 114.544 58.9034 114.544 58.6307V57.7102C114.501 57.7614 114.408 57.8082 114.263 57.8509C114.121 57.8906 113.956 57.9261 113.768 57.9574C113.584 57.9858 113.403 58.0114 113.227 58.0341C113.054 58.054 112.913 58.071 112.805 58.0852C112.544 58.1193 112.3 58.1747 112.072 58.2514C111.848 58.3253 111.666 58.4375 111.527 58.5881C111.391 58.7358 111.322 58.9375 111.322 59.1932C111.322 59.5426 111.452 59.8068 111.71 59.9858C111.972 60.1619 112.303 60.25 112.703 60.25ZM118.391 59.517L121.544 54.4545H122.703V61H121.698V55.9375L118.561 61H117.385V54.4545H118.391V59.517ZM120.88 52.2727H121.817C121.817 52.733 121.658 53.1094 121.34 53.402C121.022 53.6946 120.59 53.8409 120.044 53.8409C119.507 53.8409 119.08 53.6946 118.762 53.402C118.446 53.1094 118.289 52.733 118.289 52.2727H119.226C119.226 52.4943 119.287 52.6889 119.409 52.8565C119.534 53.0241 119.746 53.108 120.044 53.108C120.343 53.108 120.556 53.0241 120.684 52.8565C120.814 52.6889 120.88 52.4943 120.88 52.2727ZM123.655 55.392V54.4545H128.973V55.392H126.825V61H125.82V55.392H123.655ZM131.309 56.8239H133.184C133.951 56.8239 134.538 57.0185 134.944 57.4077C135.35 57.7969 135.554 58.2898 135.554 58.8864C135.554 59.2784 135.463 59.6349 135.281 59.956C135.099 60.2741 134.832 60.5284 134.48 60.7188C134.127 60.9062 133.696 61 133.184 61H130.44V54.4545H131.446V60.0625H133.184C133.582 60.0625 133.909 59.9574 134.164 59.7472C134.42 59.5369 134.548 59.267 134.548 58.9375C134.548 58.5909 134.42 58.3082 134.164 58.0895C133.909 57.8707 133.582 57.7614 133.184 57.7614H131.309V56.8239ZM136.593 61V54.4545H137.599V61H136.593ZM140.94 59.8068L140.872 60.267C140.824 60.5909 140.75 60.9375 140.65 61.3068C140.554 61.6761 140.453 62.0241 140.348 62.3509C140.243 62.6776 140.156 62.9375 140.088 63.1307H139.321C139.358 62.9489 139.406 62.7088 139.466 62.4105C139.525 62.1122 139.585 61.7784 139.645 61.4091C139.707 61.0426 139.758 60.6676 139.798 60.2841L139.849 59.8068H140.94ZM103.92 76V69.4545H109.068V76H108.062V70.392H104.926V76H103.92ZM110.905 78.4545V69.4545H111.876V70.4943H111.996C112.07 70.3807 112.172 70.2358 112.303 70.0597C112.436 69.8807 112.626 69.7216 112.874 69.5824C113.124 69.4403 113.462 69.3693 113.888 69.3693C114.439 69.3693 114.925 69.5071 115.345 69.7827C115.766 70.0582 116.094 70.4489 116.33 70.9545C116.565 71.4602 116.683 72.0568 116.683 72.7443C116.683 73.4375 116.565 74.0384 116.33 74.5469C116.094 75.0526 115.767 75.4446 115.349 75.723C114.932 75.9986 114.45 76.1364 113.905 76.1364C113.484 76.1364 113.148 76.0668 112.895 75.9276C112.642 75.7855 112.447 75.625 112.311 75.446C112.175 75.2642 112.07 75.1136 111.996 74.9943H111.911V78.4545H110.905ZM111.893 72.7273C111.893 73.2216 111.966 73.6577 112.111 74.0355C112.256 74.4105 112.467 74.7045 112.746 74.9176C113.024 75.1278 113.365 75.233 113.768 75.233C114.189 75.233 114.54 75.1222 114.821 74.9006C115.105 74.6761 115.318 74.375 115.46 73.9972C115.605 73.6165 115.678 73.1932 115.678 72.7273C115.678 72.267 115.607 71.8523 115.464 71.483C115.325 71.1108 115.114 70.8168 114.83 70.6009C114.548 70.3821 114.195 70.2727 113.768 70.2727C113.359 70.2727 113.016 70.3764 112.737 70.5838C112.459 70.7884 112.249 71.0753 112.107 71.4446C111.964 71.8111 111.893 72.2386 111.893 72.7273ZM120.962 76.1364C120.331 76.1364 119.787 75.9972 119.33 75.7188C118.875 75.4375 118.524 75.0455 118.277 74.5426C118.033 74.0369 117.911 73.4489 117.911 72.7784C117.911 72.108 118.033 71.517 118.277 71.0057C118.524 70.4915 118.868 70.0909 119.308 69.804C119.751 69.5142 120.268 69.3693 120.859 69.3693C121.2 69.3693 121.537 69.4261 121.869 69.5398C122.202 69.6534 122.504 69.8381 122.777 70.0938C123.05 70.3466 123.267 70.6818 123.429 71.0994C123.591 71.517 123.672 72.0312 123.672 72.642V73.0682H118.626V72.1989H122.649C122.649 71.8295 122.575 71.5 122.428 71.2102C122.283 70.9205 122.075 70.6918 121.805 70.5241C121.538 70.3565 121.223 70.2727 120.859 70.2727C120.459 70.2727 120.112 70.3722 119.82 70.571C119.53 70.767 119.307 71.0227 119.151 71.3381C118.994 71.6534 118.916 71.9915 118.916 72.3523V72.9318C118.916 73.4261 119.001 73.8452 119.172 74.1889C119.345 74.5298 119.585 74.7898 119.892 74.9688C120.199 75.1449 120.555 75.233 120.962 75.233C121.226 75.233 121.464 75.196 121.678 75.1222C121.893 75.0455 122.08 74.9318 122.236 74.7812C122.392 74.6278 122.513 74.4375 122.598 74.2102L123.57 74.483C123.467 74.8125 123.295 75.1023 123.054 75.3523C122.813 75.5994 122.514 75.7926 122.159 75.9318C121.804 76.0682 121.405 76.1364 120.962 76.1364ZM124.793 74.3295H125.866C125.889 74.625 126.023 74.8494 126.267 75.0028C126.514 75.1562 126.835 75.233 127.23 75.233C127.634 75.233 127.979 75.1506 128.266 74.9858C128.553 74.8182 128.696 74.5483 128.696 74.1761C128.696 73.9574 128.642 73.767 128.534 73.6051C128.426 73.4403 128.274 73.3125 128.078 73.2216C127.882 73.1307 127.651 73.0852 127.384 73.0852H126.259V72.1818H127.384C127.784 72.1818 128.08 72.0909 128.27 71.9091C128.463 71.7273 128.56 71.5 128.56 71.2273C128.56 70.9347 128.456 70.7003 128.249 70.5241C128.041 70.3452 127.747 70.2557 127.366 70.2557C126.983 70.2557 126.663 70.3423 126.408 70.5156C126.152 70.6861 126.017 70.9062 126.003 71.1761H124.946C124.957 70.8239 125.065 70.5128 125.27 70.2429C125.474 69.9702 125.753 69.7571 126.105 69.6037C126.457 69.4474 126.861 69.3693 127.315 69.3693C127.776 69.3693 128.175 69.4503 128.513 69.6122C128.854 69.7713 129.116 69.9886 129.301 70.2642C129.489 70.5369 129.582 70.8466 129.582 71.1932C129.582 71.5625 129.479 71.8608 129.271 72.0881C129.064 72.3153 128.804 72.4773 128.491 72.5739V72.642C128.739 72.6591 128.953 72.7386 129.135 72.8807C129.32 73.0199 129.463 73.2031 129.565 73.4304C129.668 73.6548 129.719 73.9034 129.719 74.1761C129.719 74.5739 129.612 74.9205 129.399 75.2159C129.186 75.5085 128.893 75.7358 128.521 75.8977C128.149 76.0568 127.724 76.1364 127.247 76.1364C126.784 76.1364 126.369 76.0611 126.003 75.9105C125.636 75.7571 125.345 75.5455 125.129 75.2756C124.916 75.0028 124.804 74.6875 124.793 74.3295ZM133.876 76.1364C133.245 76.1364 132.701 75.9972 132.244 75.7188C131.789 75.4375 131.438 75.0455 131.191 74.5426C130.947 74.0369 130.825 73.4489 130.825 72.7784C130.825 72.108 130.947 71.517 131.191 71.0057C131.438 70.4915 131.782 70.0909 132.222 69.804C132.665 69.5142 133.183 69.3693 133.773 69.3693C134.114 69.3693 134.451 69.4261 134.783 69.5398C135.116 69.6534 135.418 69.8381 135.691 70.0938C135.964 70.3466 136.181 70.6818 136.343 71.0994C136.505 71.517 136.586 72.0312 136.586 72.642V73.0682H131.54V72.1989H135.563C135.563 71.8295 135.489 71.5 135.342 71.2102C135.197 70.9205 134.989 70.6918 134.719 70.5241C134.452 70.3565 134.137 70.2727 133.773 70.2727C133.373 70.2727 133.026 70.3722 132.734 70.571C132.444 70.767 132.221 71.0227 132.065 71.3381C131.908 71.6534 131.83 71.9915 131.83 72.3523V72.9318C131.83 73.4261 131.915 73.8452 132.086 74.1889C132.259 74.5298 132.499 74.7898 132.806 74.9688C133.113 75.1449 133.469 75.233 133.876 75.233C134.14 75.233 134.379 75.196 134.592 75.1222C134.808 75.0455 134.994 74.9318 135.15 74.7812C135.306 74.6278 135.427 74.4375 135.512 74.2102L136.484 74.483C136.381 74.8125 136.21 75.1023 135.968 75.3523C135.727 75.5994 135.428 75.7926 135.073 75.9318C134.718 76.0682 134.319 76.1364 133.876 76.1364ZM142.496 72.267V73.2045H138.883V72.267H142.496ZM139.121 69.4545V76H138.116V69.4545H139.121ZM143.263 69.4545V76H142.258V69.4545H143.263ZM144.21 70.392V69.4545H149.528V70.392H147.38V76H146.374V70.392H144.21ZM152.581 76.1534C152.166 76.1534 151.79 76.0753 151.452 75.919C151.114 75.7599 150.845 75.5312 150.646 75.233C150.447 74.9318 150.348 74.5682 150.348 74.142C150.348 73.767 150.422 73.4631 150.57 73.2301C150.717 72.9943 150.915 72.8097 151.162 72.6761C151.409 72.5426 151.682 72.4432 151.98 72.3778C152.281 72.3097 152.584 72.2557 152.888 72.2159C153.286 72.1648 153.608 72.1264 153.855 72.1009C154.105 72.0724 154.287 72.0256 154.401 71.9602C154.517 71.8949 154.575 71.7812 154.575 71.6193V71.5852C154.575 71.1648 154.46 70.8381 154.23 70.6051C154.003 70.3722 153.658 70.2557 153.195 70.2557C152.714 70.2557 152.338 70.3608 152.065 70.571C151.793 70.7812 151.601 71.0057 151.49 71.2443L150.536 70.9034C150.706 70.5057 150.933 70.196 151.217 69.9744C151.504 69.75 151.817 69.5937 152.155 69.5057C152.496 69.4148 152.831 69.3693 153.161 69.3693C153.371 69.3693 153.612 69.3949 153.885 69.446C154.161 69.4943 154.426 69.5952 154.682 69.7486C154.94 69.902 155.155 70.1335 155.325 70.4432C155.496 70.7528 155.581 71.1676 155.581 71.6875V76H154.575V75.1136H154.524C154.456 75.2557 154.342 75.4077 154.183 75.5696C154.024 75.7315 153.813 75.8693 153.548 75.983C153.284 76.0966 152.962 76.1534 152.581 76.1534ZM152.734 75.25C153.132 75.25 153.467 75.1719 153.74 75.0156C154.016 74.8594 154.223 74.6577 154.362 74.4105C154.504 74.1634 154.575 73.9034 154.575 73.6307V72.7102C154.533 72.7614 154.439 72.8082 154.294 72.8509C154.152 72.8906 153.987 72.9261 153.8 72.9574C153.615 72.9858 153.435 73.0114 153.259 73.0341C153.085 73.054 152.945 73.071 152.837 73.0852C152.575 73.1193 152.331 73.1747 152.104 73.2514C151.879 73.3253 151.697 73.4375 151.558 73.5881C151.422 73.7358 151.354 73.9375 151.354 74.1932C151.354 74.5426 151.483 74.8068 151.741 74.9858C152.003 75.1619 152.334 75.25 152.734 75.25ZM162.564 69.4545V75.0625H163.485V78.1136H162.479V76H157.417V69.4545H158.422V75.0625H161.559V69.4545H162.564ZM166.039 74.517L169.193 69.4545H170.352V76H169.346V70.9375L166.21 76H165.034V69.4545H166.039V74.517ZM173.2 74.517L176.353 69.4545H177.512V76H176.506V70.9375L173.37 76H172.194V69.4545H173.2V74.517ZM180.854 74.8068L180.786 75.267C180.738 75.5909 180.664 75.9375 180.564 76.3068C180.468 76.6761 180.367 77.0241 180.262 77.3509C180.157 77.6776 180.07 77.9375 180.002 78.1307H179.235C179.272 77.9489 179.32 77.7088 179.38 77.4105C179.439 77.1122 179.499 76.7784 179.559 76.4091C179.621 76.0426 179.672 75.6676 179.712 75.2841L179.763 74.8068H180.854ZM106.58 93.233V82.2727H107.585V93.233H106.58ZM106.58 91.1364C106.136 91.1364 105.733 91.0568 105.369 90.8977C105.006 90.7358 104.693 90.5071 104.432 90.2116C104.17 89.9134 103.969 89.5568 103.827 89.142C103.685 88.7273 103.614 88.267 103.614 87.7614C103.614 87.25 103.685 86.7869 103.827 86.3722C103.969 85.9545 104.17 85.5966 104.432 85.2983C104.693 85 105.006 84.7713 105.369 84.6122C105.733 84.4503 106.136 84.3693 106.58 84.3693H106.886V91.1364H106.58ZM106.58 90.233H106.75V85.2727H106.58C106.244 85.2727 105.953 85.3409 105.706 85.4773C105.459 85.6108 105.254 85.794 105.092 86.027C104.933 86.2571 104.814 86.5213 104.734 86.8196C104.658 87.1179 104.619 87.4318 104.619 87.7614C104.619 88.1989 104.689 88.6051 104.828 88.9801C104.967 89.3551 105.182 89.6577 105.472 89.8878C105.761 90.1179 106.131 90.233 106.58 90.233ZM107.585 91.1364H107.278V84.3693H107.585C108.028 84.3693 108.432 84.4503 108.795 84.6122C109.159 84.7713 109.472 85 109.733 85.2983C109.994 85.5966 110.196 85.9545 110.338 86.3722C110.48 86.7869 110.551 87.25 110.551 87.7614C110.551 88.267 110.48 88.7273 110.338 89.142C110.196 89.5568 109.994 89.9134 109.733 90.2116C109.472 90.5071 109.159 90.7358 108.795 90.8977C108.432 91.0568 108.028 91.1364 107.585 91.1364ZM107.585 90.233C107.923 90.233 108.214 90.1676 108.459 90.0369C108.706 89.9034 108.909 89.7216 109.068 89.4915C109.23 89.2585 109.349 88.9943 109.426 88.6989C109.506 88.4006 109.545 88.0881 109.545 87.7614C109.545 87.3239 109.476 86.9162 109.337 86.5384C109.197 86.1605 108.983 85.8551 108.693 85.6222C108.403 85.3892 108.034 85.2727 107.585 85.2727H107.415V90.233H107.585ZM113.094 89.517L116.248 84.4545H117.407V91H116.401V85.9375L113.265 91H112.088V84.4545H113.094V89.517ZM119.249 93.4545V84.4545H120.22V85.4943H120.339C120.413 85.3807 120.516 85.2358 120.646 85.0597C120.78 84.8807 120.97 84.7216 121.217 84.5824C121.467 84.4403 121.805 84.3693 122.232 84.3693C122.783 84.3693 123.268 84.5071 123.689 84.7827C124.109 85.0582 124.438 85.4489 124.673 85.9545C124.909 86.4602 125.027 87.0568 125.027 87.7443C125.027 88.4375 124.909 89.0384 124.673 89.5469C124.438 90.0526 124.111 90.4446 123.693 90.723C123.276 90.9986 122.794 91.1364 122.249 91.1364C121.828 91.1364 121.491 91.0668 121.239 90.9276C120.986 90.7855 120.791 90.625 120.655 90.446C120.518 90.2642 120.413 90.1136 120.339 89.9943H120.254V93.4545H119.249ZM120.237 87.7273C120.237 88.2216 120.31 88.6577 120.455 89.0355C120.599 89.4105 120.811 89.7045 121.089 89.9176C121.368 90.1278 121.709 90.233 122.112 90.233C122.533 90.233 122.884 90.1222 123.165 89.9006C123.449 89.6761 123.662 89.375 123.804 88.9972C123.949 88.6165 124.021 88.1932 124.021 87.7273C124.021 87.267 123.95 86.8523 123.808 86.483C123.669 86.1108 123.457 85.8168 123.173 85.6009C122.892 85.3821 122.538 85.2727 122.112 85.2727C121.703 85.2727 121.359 85.3764 121.081 85.5838C120.803 85.7884 120.592 86.0753 120.45 86.4446C120.308 86.8111 120.237 87.2386 120.237 87.7273ZM130.141 89.6364L132.425 84.4545H133.379L130.55 91H129.732L126.953 84.4545H127.891L130.141 89.6364ZM127.567 84.4545V91H126.561V84.4545H127.567ZM132.714 91V84.4545H133.72V91H132.714ZM138.305 91.1364C137.675 91.1364 137.131 90.9972 136.673 90.7188C136.219 90.4375 135.868 90.0455 135.621 89.5426C135.376 89.0369 135.254 88.4489 135.254 87.7784C135.254 87.108 135.376 86.517 135.621 86.0057C135.868 85.4915 136.212 85.0909 136.652 84.804C137.095 84.5142 137.612 84.3693 138.203 84.3693C138.544 84.3693 138.881 84.4261 139.213 84.5398C139.545 84.6534 139.848 84.8381 140.121 85.0938C140.393 85.3466 140.611 85.6818 140.773 86.0994C140.935 86.517 141.016 87.0312 141.016 87.642V88.0682H135.97V87.1989H139.993C139.993 86.8295 139.919 86.5 139.771 86.2102C139.626 85.9205 139.419 85.6918 139.149 85.5241C138.882 85.3565 138.567 85.2727 138.203 85.2727C137.803 85.2727 137.456 85.3722 137.163 85.571C136.874 85.767 136.651 86.0227 136.494 86.3381C136.338 86.6534 136.26 86.9915 136.26 87.3523V87.9318C136.26 88.4261 136.345 88.8452 136.516 89.1889C136.689 89.5298 136.929 89.7898 137.236 89.9688C137.543 90.1449 137.899 90.233 138.305 90.233C138.57 90.233 138.808 90.196 139.021 90.1222C139.237 90.0455 139.423 89.9318 139.58 89.7812C139.736 89.6278 139.857 89.4375 139.942 89.2102L140.913 89.483C140.811 89.8125 140.639 90.1023 140.398 90.3523C140.156 90.5994 139.858 90.7926 139.503 90.9318C139.148 91.0682 138.749 91.1364 138.305 91.1364ZM146.926 87.267V88.2045H143.312V87.267H146.926ZM143.551 84.4545V91H142.545V84.4545H143.551ZM147.693 84.4545V91H146.688V84.4545H147.693ZM153.911 87.267V88.2045H150.297V87.267H153.911ZM150.536 84.4545V91H149.53V84.4545H150.536ZM154.678 84.4545V91H153.672V84.4545H154.678ZM157.384 86.8239H159.259C160.026 86.8239 160.612 87.0185 161.018 87.4077C161.425 87.7969 161.628 88.2898 161.628 88.8864C161.628 89.2784 161.537 89.6349 161.355 89.956C161.173 90.2741 160.906 90.5284 160.554 90.7188C160.202 90.9062 159.77 91 159.259 91H156.514V84.4545H157.52V90.0625H159.259C159.656 90.0625 159.983 89.9574 160.239 89.7472C160.494 89.5369 160.622 89.267 160.622 88.9375C160.622 88.5909 160.494 88.3082 160.239 88.0895C159.983 87.8707 159.656 87.7614 159.259 87.7614H157.384V86.8239ZM162.668 91V84.4545H163.673V91H162.668ZM166.52 89.517L169.673 84.4545H170.832V91H169.827V85.9375L166.69 91H165.514V84.4545H166.52V89.517ZM169.009 82.2727H169.946C169.946 82.733 169.787 83.1094 169.469 83.402C169.151 83.6946 168.719 83.8409 168.173 83.8409C167.636 83.8409 167.209 83.6946 166.891 83.402C166.575 83.1094 166.418 82.733 166.418 82.2727H167.355C167.355 82.4943 167.416 82.6889 167.538 82.8565C167.663 83.0241 167.875 83.108 168.173 83.108C168.472 83.108 168.685 83.0241 168.812 82.8565C168.943 82.6889 169.009 82.4943 169.009 82.2727ZM178.708 91.1364C178.095 91.1364 177.566 90.9915 177.123 90.7017C176.68 90.4119 176.339 90.0128 176.1 89.5043C175.862 88.9957 175.743 88.4148 175.743 87.7614C175.743 87.0966 175.865 86.5099 176.109 86.0014C176.356 85.4901 176.7 85.0909 177.14 84.804C177.583 84.5142 178.1 84.3693 178.691 84.3693C179.152 84.3693 179.566 84.4545 179.936 84.625C180.305 84.7955 180.608 85.0341 180.843 85.3409C181.079 85.6477 181.225 86.0057 181.282 86.4148H180.277C180.2 86.1165 180.029 85.8523 179.765 85.6222C179.504 85.3892 179.152 85.2727 178.708 85.2727C178.316 85.2727 177.973 85.375 177.677 85.5795C177.385 85.7812 177.156 86.0668 176.991 86.4361C176.829 86.8026 176.748 87.233 176.748 87.7273C176.748 88.233 176.828 88.6733 176.987 89.0483C177.149 89.4233 177.376 89.7145 177.669 89.9219C177.964 90.1293 178.311 90.233 178.708 90.233C178.97 90.233 179.207 90.1875 179.42 90.0966C179.633 90.0057 179.814 89.875 179.961 89.7045C180.109 89.5341 180.214 89.3295 180.277 89.0909H181.282C181.225 89.4773 181.085 89.8253 180.86 90.1349C180.639 90.4418 180.345 90.6861 179.978 90.8679C179.615 91.0469 179.191 91.1364 178.708 91.1364ZM182.237 85.392V84.4545H187.555V85.392H185.407V91H184.402V85.392H182.237ZM190.028 89.517L193.181 84.4545H194.34V91H193.335V85.9375L190.198 91H189.022V84.4545H190.028V89.517ZM195.603 91V90.0625H195.841C196.037 90.0625 196.201 90.0241 196.331 89.9474C196.462 89.8679 196.567 89.7301 196.647 89.5341C196.729 89.3352 196.792 89.0597 196.834 88.7074C196.88 88.3523 196.912 87.9006 196.932 87.3523L197.051 84.4545H201.415V91H200.409V85.392H198.006L197.904 87.7273C197.881 88.2642 197.833 88.7372 197.759 89.1463C197.688 89.5526 197.578 89.8935 197.431 90.169C197.286 90.4446 197.093 90.652 196.851 90.7912C196.61 90.9304 196.307 91 195.944 91H195.603ZM204.13 86.8239H206.005C206.772 86.8239 207.358 87.0185 207.765 87.4077C208.171 87.7969 208.374 88.2898 208.374 88.8864C208.374 89.2784 208.283 89.6349 208.101 89.956C207.919 90.2741 207.652 90.5284 207.3 90.7188C206.948 90.9062 206.516 91 206.005 91H203.26V84.4545H204.266V90.0625H206.005C206.402 90.0625 206.729 89.9574 206.985 89.7472C207.24 89.5369 207.368 89.267 207.368 88.9375C207.368 88.5909 207.24 88.3082 206.985 88.0895C206.729 87.8707 206.402 87.7614 206.005 87.7614H204.13V86.8239Z" fill="#2A2A3C"/>
</svg>
