<svg width="34" height="22" viewBox="0 0 34 22" fill="none" xmlns="http://www.w3.org/2000/svg">
<path fill-rule="evenodd" clip-rule="evenodd" d="M14.2117 0.111632C14.1514 0.0780684 14.1213 0.0612867 14.0886 0.0494475C14.0596 0.0389337 14.0291 0.0313382 13.9975 0.0267636C13.962 0.0216123 13.9247 0.0216123 13.8503 0.0216123H12.1949C12.0121 0.0216123 11.9206 0.0216123 11.8349 0.0487887C11.7591 0.0728239 11.6868 0.112067 11.6232 0.163734C11.5512 0.222154 11.4952 0.302185 11.3832 0.462248L6.0703 8.05161C5.97662 8.18543 5.92978 8.25234 5.90321 8.32274C5.87968 8.38509 5.86785 8.44918 5.86833 8.51169C5.86886 8.58227 5.89091 8.64964 5.935 8.78438L6.34276 10.0304C6.46995 10.419 6.53355 10.6134 6.48152 10.7713C6.43609 10.9092 6.33655 11.0325 6.20625 11.1123C6.05705 11.2038 5.83662 11.2038 5.39576 11.2038H4.3669C4.18409 11.2038 4.09269 11.2038 4.00695 11.231C3.93111 11.255 3.85882 11.2942 3.7952 11.3459C3.72327 11.4043 3.66724 11.4843 3.55519 11.6444L0.915564 15.4151C0.641757 15.8062 0.504854 16.0018 0.499135 16.161C0.494142 16.3001 0.549297 16.4248 0.651484 16.5057C0.768534 16.5983 0.991886 16.5983 1.43859 16.5983H4.53483C4.71137 16.5983 4.79964 16.5983 4.88292 16.5727C4.9566 16.55 5.02712 16.513 5.08977 16.4641C5.16059 16.4088 5.21698 16.3328 5.32977 16.1809L7.06578 13.8428C7.17857 13.6909 7.23496 13.6149 7.30578 13.5596C7.36843 13.5107 7.43895 13.4737 7.51263 13.451C7.59591 13.4254 7.68418 13.4254 7.86072 13.4254H12.1413C12.4177 13.4254 12.556 13.4254 12.6543 13.4775C12.7408 13.5233 12.8058 13.5966 12.8407 13.6875C12.8803 13.7908 12.8627 13.9267 12.8276 14.1986L12.6173 15.8251C12.5822 16.097 12.5646 16.2329 12.6042 16.3362C12.6391 16.4271 12.7041 16.5004 12.7906 16.5462C12.8889 16.5983 13.0272 16.5983 13.3036 16.5983H29.7221C30.0108 16.5983 30.1551 16.5983 30.2752 16.543C30.3808 16.4943 30.4735 16.4167 30.5399 16.3212C30.6153 16.2127 30.6406 16.0706 30.6911 15.7864L31.0479 13.7793C31.0985 13.4951 31.1237 13.353 31.0868 13.2445C31.0544 13.149 30.9894 13.0714 30.901 13.0227C30.8006 12.9674 30.6563 12.9674 30.3676 12.9674H24.9052C24.3746 12.9674 24.1093 12.9674 23.9886 12.8596C23.8835 12.7657 23.8363 12.6229 23.8601 12.4707C23.8874 12.2957 24.0837 12.0867 24.4761 11.6687L32.8836 2.71264C32.959 2.63234 32.9967 2.59219 33.0262 2.54799C33.0524 2.50876 33.0739 2.46726 33.0899 2.4245C33.1081 2.37631 33.117 2.32615 33.1348 2.22581L33.3862 0.811914C33.4367 0.527717 33.462 0.385619 33.4251 0.27707C33.3927 0.181588 33.3276 0.103959 33.2393 0.0553083C33.1389 0 32.9945 0 32.7059 0H20.5918C20.3031 0 20.1588 0 20.0387 0.0553083C19.9331 0.103959 19.8404 0.181588 19.774 0.27707C19.6986 0.385619 19.6733 0.527718 19.6228 0.811914L19.266 2.81896C19.2154 3.10316 19.1902 3.24526 19.2271 3.35381C19.2595 3.44929 19.3245 3.52692 19.4129 3.57557C19.5133 3.63088 19.6576 3.63088 19.9463 3.63088H25.4087C25.9393 3.63088 26.2045 3.63088 26.3253 3.73873C26.4304 3.8326 26.4776 3.97535 26.4538 4.1276C26.4265 4.30255 26.2302 4.51157 25.8378 4.92962L19.0007 12.2128C18.5402 12.7033 18.31 12.9486 18.1174 12.9897C17.9503 13.0254 17.7894 12.9832 17.6845 12.8763C17.5636 12.753 17.5725 12.4497 17.5904 11.8432L17.8644 2.56631C17.8689 2.4149 17.8711 2.33919 17.852 2.27298C17.8352 2.21435 17.8061 2.16139 17.7666 2.11693C17.7219 2.06672 17.659 2.0317 17.5333 1.96167L14.2117 0.111632ZM13.9884 4.58667C14.034 4.58667 14.0652 4.62189 14.0595 4.66668L13.4726 9.2076C13.4343 9.50396 13.4151 9.65214 13.3408 9.76596C13.2754 9.86602 13.1814 9.94806 13.073 9.99962C12.9497 10.0583 12.799 10.0583 12.4977 10.0583H11.2777C10.8165 10.0583 10.5859 10.0583 10.468 9.9628C10.3652 9.8795 10.3114 9.75129 10.3198 9.60958C10.3294 9.44716 10.4768 9.24871 10.7715 8.85182L13.9062 4.62986C13.926 4.6032 13.9575 4.58667 13.9884 4.58667Z" fill="#E9E9E9"/>
<path d="M0.0546875 16.7726L18.4703 20.7105C18.7323 20.7665 18.9161 20.3843 18.6753 20.2844C18.4378 20.1858 18.6131 19.8093 18.8742 19.857L26.4459 21.2408C26.4722 21.2456 26.4853 21.248 26.4987 21.2496C26.5105 21.2511 26.5225 21.2522 26.5346 21.2529C26.5482 21.2536 26.562 21.2536 26.5896 21.2536H28.9449C29.3044 21.2536 29.4841 21.2536 29.5498 21.2377C29.9882 21.132 30.1917 20.5947 29.8901 20.3396C29.8449 20.3013 29.6907 20.2339 29.3824 20.0991L26.6147 18.8886C26.4733 18.8267 26.3179 19.0262 26.4281 19.128C26.5258 19.2182 26.413 19.3983 26.2727 19.3764L13.7281 17.4219C13.3756 17.367 13.0961 17.8232 13.3472 18.0435C13.5972 18.2628 13.3211 18.7171 12.9692 18.6655L0.0546875 16.7726Z" fill="#E9E9E9"/>
</svg>
