<svg width="13" height="9" viewBox="0 0 13 9" fill="none" xmlns="http://www.w3.org/2000/svg">
<path fill-rule="evenodd" clip-rule="evenodd" d="M5.63392 0.204253H4.76353L2.59456 3.3026L2.93118 4.33121H1.8745L0.48078 6.32212H2.30123L3.17067 5.15112H5.21965L5.06831 6.32212L11.7223 6.32213L11.9605 4.9821H9.03188L12.6597 1.11756L12.8235 0.196289H7.74392L7.50569 1.53632H10.4344L6.91952 5.28048L7.0462 0.990844L5.63392 0.204253ZM5.64123 1.88906L5.38025 3.90843H4.09334L5.59269 1.88906H5.64123Z" fill="#2A2A3C"/>
<path d="M0.46875 6.38647L8.20259 8.04023L6.60453 7.3768L10.2347 8.04023H12.2668L9.95849 7.03066L10.3333 7.3768L5.02619 6.54992L5.71671 7.15566L0.46875 6.38647Z" fill="#2A2A3C"/>
</svg>
