<svg width="21" height="14" viewBox="0 0 21 14" fill="none" xmlns="http://www.w3.org/2000/svg">
<g opacity="0.3">
<path fill-rule="evenodd" clip-rule="evenodd" d="M9.02458 0.127587C8.98733 0.106844 8.96871 0.0964718 8.94851 0.0891546C8.93057 0.0826566 8.91172 0.0779622 8.89222 0.0751349C8.87027 0.0719512 8.84725 0.0719512 8.80121 0.0719512H7.7781C7.66512 0.0719512 7.60862 0.0719512 7.55563 0.0887475C7.50876 0.103602 7.46408 0.127856 7.42476 0.159789C7.3803 0.195895 7.34568 0.245358 7.27642 0.344285L3.99283 5.03486C3.93493 5.11757 3.90598 5.15893 3.88957 5.20244C3.87502 5.24097 3.86771 5.28058 3.868 5.31922C3.86833 5.36284 3.88196 5.40448 3.90921 5.48775L4.16123 6.25783C4.23984 6.49804 4.27914 6.61815 4.24699 6.71575C4.21891 6.80097 4.15739 6.87721 4.07686 6.92655C3.98465 6.98305 3.84841 6.98305 3.57593 6.98305H2.94005C2.82707 6.98305 2.77058 6.98305 2.71758 6.99985C2.67072 7.0147 2.62604 7.03896 2.58672 7.07089C2.54226 7.107 2.50763 7.15646 2.43838 7.25538L0.806964 9.58585C0.637739 9.82758 0.553126 9.94845 0.549592 10.0469C0.546506 10.1328 0.580595 10.2099 0.643751 10.2599C0.716093 10.3171 0.854135 10.3171 1.13022 10.3171H3.04384C3.15295 10.3171 3.2075 10.3171 3.25898 10.3013C3.30451 10.2873 3.3481 10.2644 3.38682 10.2342C3.43059 10.2 3.46544 10.153 3.53515 10.0592L4.60809 8.61409C4.6778 8.5202 4.71265 8.47326 4.75642 8.43907C4.79514 8.40883 4.83872 8.38595 4.88426 8.37195C4.93573 8.35613 4.99029 8.35613 5.09939 8.35613H7.745C7.91585 8.35613 8.00128 8.35613 8.06202 8.3883C8.11549 8.41662 8.15571 8.46193 8.17724 8.51811C8.20171 8.58194 8.19085 8.66595 8.16914 8.83397L8.03921 9.83927C8.0175 10.0073 8.00664 10.0913 8.0311 10.1551C8.05264 10.2113 8.09285 10.2566 8.14632 10.2849C8.20707 10.3171 8.2925 10.3171 8.46335 10.3171H18.6108C18.7892 10.3171 18.8784 10.3171 18.9526 10.2829C19.0179 10.2529 19.0751 10.2049 19.1162 10.1459C19.1628 10.0788 19.1784 9.99096 19.2097 9.81531L19.4302 8.57486C19.4614 8.39922 19.477 8.31139 19.4542 8.2443C19.4342 8.18529 19.394 8.13731 19.3394 8.10725C19.2773 8.07306 19.1881 8.07306 19.0097 8.07306H15.6337C15.3058 8.07306 15.1418 8.07306 15.0672 8.0064C15.0022 7.94839 14.9731 7.86016 14.9878 7.76607C15.0047 7.65794 15.1259 7.52875 15.3685 7.27038L20.5647 1.73513C20.6113 1.6855 20.6346 1.66069 20.6529 1.63337C20.6691 1.60913 20.6823 1.58347 20.6922 1.55705C20.7034 1.52727 20.709 1.49626 20.72 1.43425L20.8753 0.560394C20.9066 0.384748 20.9222 0.296925 20.8994 0.229836C20.8793 0.170824 20.8391 0.122845 20.7845 0.0927769C20.7225 0.0585938 20.6333 0.0585938 20.4549 0.0585938H12.9678C12.7894 0.0585938 12.7002 0.0585938 12.626 0.0927769C12.5607 0.122845 12.5034 0.170824 12.4624 0.229836C12.4157 0.296925 12.4001 0.384748 12.3689 0.560395L12.1484 1.80084C12.1171 1.97649 12.1015 2.06431 12.1243 2.1314C12.1444 2.19042 12.1846 2.23839 12.2392 2.26846C12.3012 2.30265 12.3904 2.30265 12.5688 2.30265H15.9449C16.2728 2.30265 16.4367 2.30265 16.5114 2.36931C16.5764 2.42732 16.6055 2.51555 16.5908 2.60964C16.5739 2.71777 16.4526 2.84696 16.2101 3.10533L11.9844 7.60667C11.6998 7.90984 11.5575 8.06143 11.4385 8.08684C11.3352 8.10889 11.2358 8.08283 11.1709 8.01672C11.0962 7.94054 11.1018 7.75312 11.1128 7.37826L11.2822 1.64469C11.2849 1.55111 11.2863 1.50433 11.2745 1.4634C11.2641 1.42717 11.2461 1.39443 11.2217 1.36695C11.1941 1.33592 11.1552 1.31428 11.0775 1.271L9.02458 0.127587ZM8.88662 2.89337C8.91477 2.89337 8.93408 2.91514 8.9305 2.94282L8.56779 5.74932C8.54412 5.93249 8.53229 6.02407 8.48633 6.09442C8.44594 6.15626 8.38783 6.20696 8.32083 6.23883C8.24461 6.27508 8.15149 6.27508 7.96524 6.27508H7.21127C6.92621 6.27508 6.78368 6.27508 6.71083 6.21607C6.64727 6.16459 6.61402 6.08535 6.61922 5.99776C6.62519 5.89738 6.71625 5.77473 6.89838 5.52944L8.83578 2.92007C8.84801 2.90359 8.86747 2.89337 8.88662 2.89337Z" fill="white"/>
<path d="M0.274902 10.4249L11.6566 12.8587C11.8185 12.8933 11.9322 12.6571 11.7833 12.5953C11.6366 12.5344 11.7449 12.3017 11.9062 12.3312L16.5859 13.1864C16.6022 13.1893 16.6103 13.1908 16.6185 13.1919C16.6259 13.1928 16.6333 13.1935 16.6407 13.1939C16.6492 13.1943 16.6577 13.1943 16.6747 13.1943H18.1304C18.3526 13.1943 18.4636 13.1943 18.5042 13.1845C18.7752 13.1192 18.901 12.7871 18.7146 12.6294C18.6866 12.6058 18.5913 12.5641 18.4008 12.4808L16.6902 11.7326C16.6028 11.6944 16.5068 11.8177 16.5749 11.8806C16.6353 11.9363 16.5656 12.0476 16.4788 12.0341L8.72572 10.8262C8.50788 10.7922 8.33508 11.0742 8.49029 11.2103C8.64479 11.3458 8.47418 11.6266 8.25669 11.5947L0.274902 10.4249Z" fill="white"/>
</g>
</svg>
