<svg width="34" height="22" viewBox="0 0 34 22" fill="none" xmlns="http://www.w3.org/2000/svg">
<path fill-rule="evenodd" clip-rule="evenodd" d="M14.157 0.111632C14.0967 0.0780684 14.0666 0.0612867 14.0339 0.0494475C14.0049 0.0389337 13.9744 0.0313382 13.9428 0.0267636C13.9073 0.0216123 13.8701 0.0216123 13.7956 0.0216123H12.1402C11.9574 0.0216123 11.866 0.0216123 11.7802 0.0487887C11.7044 0.0728239 11.6321 0.112067 11.5685 0.163734C11.4965 0.222154 11.4405 0.302185 11.3285 0.462248L6.01561 8.05161C5.92193 8.18543 5.87509 8.25234 5.84852 8.32274C5.825 8.38509 5.81316 8.44918 5.81364 8.51169C5.81417 8.58227 5.83622 8.64964 5.88031 8.78438L6.28807 10.0304C6.41526 10.419 6.47886 10.6134 6.42684 10.7713C6.38141 10.9092 6.28186 11.0325 6.15157 11.1123C6.00236 11.2038 5.78193 11.2038 5.34107 11.2038H4.31221C4.12941 11.2038 4.038 11.2038 3.95226 11.231C3.87643 11.255 3.80414 11.2942 3.74052 11.3459C3.66858 11.4043 3.61256 11.4843 3.50051 11.6444L0.860876 15.4151C0.587069 15.8062 0.450166 16.0018 0.444447 16.161C0.439455 16.3001 0.49461 16.4248 0.596797 16.5057C0.713846 16.5983 0.937198 16.5983 1.3839 16.5983H4.48015C4.65668 16.5983 4.74495 16.5983 4.82823 16.5727C4.90191 16.55 4.97243 16.513 5.03508 16.4641C5.1059 16.4088 5.16229 16.3328 5.27508 16.1809L7.01109 13.8428C7.12388 13.6909 7.18028 13.6149 7.25109 13.5596C7.31374 13.5107 7.38426 13.4737 7.45794 13.451C7.54122 13.4254 7.62949 13.4254 7.80603 13.4254H12.0866C12.3631 13.4254 12.5013 13.4254 12.5996 13.4775C12.6861 13.5233 12.7511 13.5966 12.786 13.6875C12.8256 13.7908 12.808 13.9267 12.7729 14.1986L12.5627 15.8251C12.5275 16.097 12.51 16.2329 12.5495 16.3362C12.5844 16.4271 12.6494 16.5004 12.736 16.5462C12.8343 16.5983 12.9725 16.5983 13.2489 16.5983H29.6675C29.9561 16.5983 30.1004 16.5983 30.2205 16.543C30.3262 16.4943 30.4188 16.4167 30.4852 16.3212C30.5607 16.2127 30.5859 16.0706 30.6364 15.7864L30.9933 13.7793C31.0438 13.4951 31.069 13.353 31.0322 13.2445C30.9997 13.149 30.9347 13.0714 30.8463 13.0227C30.7459 12.9674 30.6016 12.9674 30.3129 12.9674H24.8505C24.3199 12.9674 24.0547 12.9674 23.9339 12.8596C23.8288 12.7657 23.7816 12.6229 23.8054 12.4707C23.8328 12.2957 24.029 12.0867 24.4214 11.6687L32.8289 2.71264C32.9043 2.63234 32.942 2.59219 32.9715 2.54799C32.9977 2.50876 33.0192 2.46726 33.0353 2.4245C33.0534 2.37631 33.0623 2.32615 33.0801 2.22581L33.3315 0.811914C33.382 0.527717 33.4073 0.385619 33.3704 0.27707C33.338 0.181588 33.2729 0.103959 33.1846 0.0553083C33.0842 0 32.9398 0 32.6512 0H20.5371C20.2484 0 20.1041 0 19.984 0.0553083C19.8784 0.103959 19.7857 0.181588 19.7193 0.27707C19.6439 0.385619 19.6186 0.527718 19.5681 0.811914L19.2113 2.81896C19.1607 3.10316 19.1355 3.24526 19.1724 3.35381C19.2048 3.44929 19.2698 3.52692 19.3582 3.57557C19.4586 3.63088 19.6029 3.63088 19.8916 3.63088H25.354C25.8846 3.63088 26.1499 3.63088 26.2706 3.73873C26.3757 3.8326 26.4229 3.97535 26.3991 4.1276C26.3718 4.30255 26.1755 4.51157 25.7831 4.92962L18.946 12.2128C18.4855 12.7033 18.2553 12.9486 18.0627 12.9897C17.8956 13.0254 17.7347 12.9832 17.6298 12.8763C17.5089 12.753 17.5178 12.4497 17.5358 11.8432L17.8097 2.56631C17.8142 2.4149 17.8164 2.33919 17.7974 2.27298C17.7805 2.21435 17.7515 2.16139 17.7119 2.11693C17.6672 2.06672 17.6044 2.0317 17.4786 1.96167L14.157 0.111632ZM13.9338 4.58667C13.9793 4.58667 14.0106 4.62189 14.0048 4.66668L13.4179 9.2076C13.3796 9.50396 13.3604 9.65214 13.2861 9.76596C13.2207 9.86602 13.1267 9.94806 13.0183 9.99962C12.895 10.0583 12.7443 10.0583 12.443 10.0583H11.223C10.7618 10.0583 10.5312 10.0583 10.4133 9.9628C10.3105 9.8795 10.2567 9.75129 10.2651 9.60958C10.2748 9.44716 10.4221 9.24871 10.7168 8.85182L13.8515 4.62986C13.8713 4.6032 13.9028 4.58667 13.9338 4.58667Z" fill="#F1632B"/>
<path d="M0 16.7726L18.4156 20.7105C18.6776 20.7665 18.8614 20.3843 18.6206 20.2844C18.3832 20.1858 18.5584 19.8093 18.8195 19.857L26.3912 21.2408C26.4175 21.2456 26.4306 21.248 26.444 21.2496C26.4558 21.2511 26.4678 21.2522 26.4799 21.2529C26.4935 21.2536 26.5073 21.2536 26.5349 21.2536H28.8903C29.2497 21.2536 29.4294 21.2536 29.4951 21.2377C29.9335 21.132 30.137 20.5947 29.8354 20.3396C29.7902 20.3013 29.636 20.2339 29.3277 20.0991L26.56 18.8886C26.4186 18.8267 26.2632 19.0262 26.3734 19.128C26.4711 19.2182 26.3583 19.3983 26.218 19.3764L13.6734 17.4219C13.321 17.367 13.0414 17.8232 13.2925 18.0435C13.5425 18.2628 13.2664 18.7171 12.9145 18.6655L0 16.7726Z" fill="#F1632B"/>
</svg>
