<svg width="33" height="33" viewBox="0 0 33 33" fill="none" xmlns="http://www.w3.org/2000/svg">
<ellipse cx="16.6461" cy="16.758" rx="16.0368" ry="16.0368" fill="#FF4800"/>
<path d="M11.3555 12.4157C11.3555 11.2406 12.308 10.2881 13.483 10.2881V10.2881C14.6581 10.2881 15.6106 11.2406 15.6106 12.4157V20.5705C15.6106 21.7456 14.6581 22.6981 13.483 22.6981V22.6981C12.308 22.6981 11.3555 21.7456 11.3555 20.5705V12.4157Z" fill="white"/>
<path d="M18.0801 12.4157C18.0801 11.2406 19.0326 10.2881 20.2077 10.2881V10.2881C21.3827 10.2881 22.3353 11.2406 22.3353 12.4157V20.5705C22.3353 21.7456 21.3827 22.6981 20.2077 22.6981V22.6981C19.0326 22.6981 18.0801 21.7456 18.0801 20.5705V12.4157Z" fill="white"/>
</svg>
