<svg width="17" height="20" viewBox="0 0 17 20" fill="none" xmlns="http://www.w3.org/2000/svg">
<path d="M7.76287 7.15485C8.05053 6.20976 9.38856 6.20975 9.67621 7.15485L10.4002 9.53354C10.4973 9.85242 10.7468 10.102 11.0657 10.199L13.4444 10.923C14.3895 11.2107 14.3895 12.5487 13.4444 12.8364L11.0657 13.5604C10.7468 13.6574 10.4973 13.907 10.4002 14.2259L9.67621 16.6045C9.38856 17.5496 8.05053 17.5496 7.76288 16.6046L7.03888 14.2259C6.94182 13.907 6.69226 13.6574 6.37339 13.5604L3.99469 12.8364C3.0496 12.5487 3.0496 11.2107 3.99469 10.923L6.37339 10.199C6.69226 10.102 6.94182 9.85242 7.03888 9.53354L7.76287 7.15485Z" fill="white"/>
<path d="M14.1043 4.72168L14.5246 6.07563L15.8785 6.49591L14.5246 6.91619L14.1043 8.27014L13.684 6.91619L12.3301 6.49591L13.684 6.07563L14.1043 4.72168Z" fill="white"/>
<path d="M10.1633 0L10.5295 1.17984L11.7094 1.54608L10.5295 1.91232L10.1633 3.09216L9.79703 1.91232L8.61719 1.54608L9.79703 1.17984L10.1633 0Z" fill="white"/>
</svg>
