<svg width="13" height="9" viewBox="0 0 13 9" fill="none" xmlns="http://www.w3.org/2000/svg">
<path fill-rule="evenodd" clip-rule="evenodd" d="M5.18079 0.306793H4.31041L2.14144 3.40514L2.47805 4.43375H1.42137L0.0276554 6.42466H1.8481L2.71754 5.25366H4.76652L4.61518 6.42466L11.2692 6.42467L11.5074 5.08464H8.57876L12.2066 1.2201L12.3704 0.298828H7.29079L7.05256 1.63886H9.98123L6.46639 5.38302L6.59308 1.09338L5.18079 0.306793ZM5.18811 1.9916L4.92713 4.01097H3.64022L5.13956 1.9916H5.18811Z" fill="#2A2A3C"/>
<path d="M0.015625 6.489L7.74947 8.14277L6.1514 7.47934L9.78157 8.14277H11.8137L9.50537 7.1332L9.88022 7.47934L4.57307 6.65246L5.26359 7.2582L0.015625 6.489Z" fill="#2A2A3C"/>
</svg>
