<svg width="14" height="13" viewBox="0 0 14 13" fill="none" xmlns="http://www.w3.org/2000/svg">
<path d="M10.2444 12.9165H10.2333C9.15878 12.8393 8.11851 12.5052 7.19996 11.9424C5.49127 10.9533 3.98523 9.64973 2.76138 8.10052C1.73564 6.9498 1.0016 5.56934 0.621128 4.07552C0.461649 3.43478 0.476756 2.76302 0.664878 2.1301C0.786572 1.73173 0.983609 1.36043 1.24529 1.03635C1.49796 0.696535 1.83608 0.429662 2.22529 0.262852C2.61942 0.078043 3.06789 0.0452231 3.48471 0.170685C3.87439 0.439635 4.20557 0.784708 4.4583 1.1851L5.42604 2.48185C5.86296 3.1696 5.92596 3.4356 5.89271 3.69285C5.80959 4.02425 5.64565 4.32988 5.41554 4.58244C5.24755 4.81577 5.12388 4.9616 5.02821 5.0701C4.90338 5.21418 4.88705 5.23868 4.87771 5.28885C4.8538 5.42185 4.95005 5.58052 5.32163 6.03552C6.00368 6.84619 6.76719 7.58468 7.60013 8.23935C7.79788 8.40619 7.96238 8.53102 8.11288 8.51352C8.17121 8.50652 8.20271 8.48435 8.39813 8.31868C8.48913 8.24168 8.60346 8.14368 8.75746 8.02293L8.8158 7.97394C9.04349 7.74284 9.3332 7.58259 9.64996 7.51252C10.0261 7.50834 10.3939 7.62397 10.7 7.84268L11.6607 8.47502L12.4494 9.07702C12.9254 9.50052 13.2124 9.7566 13.2905 10.1719C13.317 10.4247 13.2923 10.6801 13.2181 10.9231C13.1438 11.1661 13.0215 11.3917 12.8583 11.5865C12.5694 12.007 12.1802 12.3488 11.7259 12.581C11.2716 12.8132 10.7667 12.9285 10.2566 12.9165H10.2444ZM3.00988 0.671185C2.81427 0.67951 2.62194 0.724425 2.44288 0.803602C2.1495 0.943353 1.89282 1.14969 1.69329 1.40618C1.44097 1.71935 1.26162 2.08483 1.16829 2.47602C1.05812 2.96091 1.06392 3.46495 1.18521 3.94719C1.54759 5.3525 2.2415 6.65051 3.2088 7.73243C4.38727 9.22499 5.83721 10.4814 7.4823 11.4354C8.31837 11.9531 9.26716 12.2611 10.2479 12.3332C10.6646 12.3465 11.0781 12.2548 11.4501 12.0665C11.8222 11.8783 12.1409 11.5995 12.377 11.2558C12.6143 10.987 12.7387 10.6369 12.7241 10.2787C12.6839 10.0675 12.5054 9.90127 12.0679 9.51218L11.3305 8.94985L10.4083 8.34435C10.0215 8.14193 9.87163 8.07543 9.72113 8.09177C9.5963 8.10635 9.47263 8.20085 9.18038 8.43185L9.11855 8.48085C8.97155 8.59752 8.86246 8.68968 8.77555 8.76318C8.61952 8.93512 8.41126 9.05094 8.18288 9.09277C8.00346 9.09549 7.82546 9.06056 7.66037 8.99023C7.49529 8.91989 7.34679 8.81572 7.22446 8.68443C6.3643 8.00772 5.57613 7.24419 4.87246 6.40593C4.4723 5.91943 4.2308 5.60035 4.30488 5.18618C4.34761 4.99685 4.44592 4.8246 4.58721 4.69152C4.67354 4.59177 4.78963 4.45818 4.94421 4.24352C5.10721 4.06239 5.23324 3.85115 5.31521 3.62168C5.32221 3.56335 5.33913 3.43385 4.94596 2.81493L3.99163 1.53043C3.78971 1.22901 3.55016 0.954575 3.2788 0.713768C3.19239 0.683725 3.10133 0.669306 3.00988 0.671185Z" fill="#2A2A3C"/>
</svg>
