<svg width="26" height="28" viewBox="0 0 26 28" fill="none" xmlns="http://www.w3.org/2000/svg">
<path fill-rule="evenodd" clip-rule="evenodd" d="M3.34099 13.5569C9.21442 10.9379 13.1285 9.21159 15.0879 8.37628C20.6816 5.99353 21.8441 5.58009 22.6035 5.56659C22.7691 5.56321 23.141 5.6054 23.3832 5.80621C23.5863 5.97496 23.6425 6.20446 23.6691 6.36478C23.6957 6.52509 23.73 6.89128 23.7035 7.17646C23.4004 10.4384 22.0879 18.3528 21.4222 22.0045C21.1379 23.5503 20.5832 24.0683 20.0441 24.1207C18.8754 24.2303 17.9863 23.3275 16.8535 22.5682C15.08 21.3785 14.0785 20.6377 12.3582 19.4767C10.3691 18.1334 11.6582 17.396 12.7925 16.1911C13.0894 15.8755 18.2425 11.0763 18.3425 10.6392C18.355 10.5852 18.366 10.3827 18.2488 10.2764C18.1316 10.1684 17.9566 10.2055 17.8316 10.2342C17.6535 10.2764 14.8222 12.1917 9.33473 15.9852C8.53161 16.5505 7.80348 16.8256 7.15036 16.8121C6.43161 16.7952 5.0488 16.3936 4.01911 16.0527C2.75817 15.6308 1.75661 15.4115 1.84255 14.6977C1.88942 14.3264 2.38942 13.9467 3.34255 13.5569H3.34099Z" fill="white"/>
</svg>
