<svg width="58" height="56" viewBox="0 0 58 56" fill="none" xmlns="http://www.w3.org/2000/svg">
<path d="M0.5 27.6617C0.5 20.4956 0.505662 17.0259 1.37598 14.2211C3.28007 8.0847 8.0847 3.28007 14.2211 1.37598C17.0259 0.505662 20.4956 0.5 27.6617 0.5H30C37.1661 0.5 40.6358 0.505662 43.4406 1.37598C49.577 3.28007 54.3816 8.0847 56.2857 14.2211C57.156 17.0259 57.1617 20.4956 57.1617 27.6617C57.1617 34.8278 57.156 38.2975 56.2857 41.1023C54.3816 47.2387 49.577 52.0433 43.4406 53.9474C40.6358 54.8177 37.1661 54.8234 30 54.8234H27.6617C20.4956 54.8234 17.0259 54.8177 14.2211 53.9474C8.0847 52.0433 3.28007 47.2387 1.37598 41.1023C0.505662 38.2975 0.5 34.8278 0.5 27.6617Z" stroke="white" stroke-opacity="0.2"/>
<path d="M24 18L33.6617 27.6617L24 37.3234" stroke="white" stroke-width="2" stroke-linejoin="round"/>
</svg>
