<svg width="25" height="17" viewBox="0 0 25 17" fill="none" xmlns="http://www.w3.org/2000/svg">
<path fill-rule="evenodd" clip-rule="evenodd" d="M10.4668 0.636606H8.71817L4.36065 6.86127L5.03693 8.92776H2.91403L0.114013 12.9276H3.77134L5.51807 10.575H9.63451L9.33047 12.9276L22.6985 12.9276L23.1771 10.2354H17.2934L24.5818 2.47146L24.9109 0.620605H14.7058L14.2272 3.31276H20.111L13.0496 10.8349L13.3041 2.21689L10.4668 0.636606ZM10.4815 4.02142L9.95717 8.07839H7.37174L10.384 4.02142H10.4815Z" fill="white"/>
<path d="M0.0898438 13.0568L15.6273 16.3793L12.4168 15.0464L19.7099 16.3793H23.7924L19.155 14.351L19.9081 15.0464L9.24586 13.3852L10.6331 14.6022L0.0898438 13.0568Z" fill="white"/>
</svg>
